<?xml version="1.0" standalone="no"?>
<!DOCTYPE svg PUBLIC "-//W3C//DTD SVG 20010904//EN"
 "http://www.w3.org/TR/2001/REC-SVG-20010904/DTD/svg10.dtd">
<svg version="1.0" xmlns="http://www.w3.org/2000/svg"
 width="460.000000pt" height="460.000000pt" viewBox="0 0 460.000000 460.000000"
 preserveAspectRatio="xMidYMid meet">
<metadata>
Created by potrace 1.14, written by Peter Selinger 2001-2017
</metadata>
<g transform="translate(0.000000,460.000000) scale(0.100000,-0.100000)"
fill="#000000" stroke="none">
<path d="M1206 4435 c-11 -8 -29 -12 -40 -10 -16 4 -27 -3 -44 -30 -13 -21
-27 -33 -34 -29 -7 5 -2 15 16 31 15 12 23 23 17 23 -20 0 -80 -42 -86 -60 -3
-11 -12 -17 -19 -14 -14 5 -60 -63 -83 -121 -16 -42 -17 -88 0 -79 9 6 9 5 0
-7 -16 -20 -18 -559 -2 -559 6 0 6 -7 -1 -19 -5 -11 -10 -34 -10 -51 l0 -31
26 20 c42 33 50 24 10 -11 l-36 -31 1 -160 c0 -146 1 -158 17 -152 36 15 55
18 49 8 -4 -6 -19 -13 -35 -16 l-29 -6 -1 -88 c-2 -80 0 -86 13 -69 8 11 15
15 15 9 0 -6 -7 -16 -15 -23 -13 -11 -15 -55 -14 -291 0 -188 4 -279 11 -279
7 0 7 -4 0 -13 -8 -9 -11 -148 -12 -431 l0 -418 25 4 c31 6 33 -4 3 -17 -21
-9 -23 -18 -26 -100 -2 -75 -1 -87 10 -74 7 9 25 19 40 21 25 5 27 3 22 -26
-10 -55 -13 -58 -44 -54 -26 4 -30 2 -30 -20 0 -25 12 -26 67 -5 17 7 17 6 1
-17 -17 -26 -20 -27 -51 -15 -16 7 -17 -13 -17 -370 1 -252 5 -385 12 -401 12
-26 23 -30 33 -14 10 15 35 12 35 -5 0 -8 -5 -15 -11 -15 -8 0 -7 -6 2 -17 13
-15 12 -15 -8 -5 -34 18 -34 16 -7 -39 35 -68 93 -125 163 -158 l56 -26 920
-3 c661 -2 937 0 980 8 122 24 212 96 256 206 24 58 24 63 27 474 2 281 0 427
-8 452 -12 43 -89 109 -124 107 -12 0 -15 -3 -8 -6 21 -8 13 -21 -20 -32 l-31
-11 19 22 19 23 -22 -19 c-21 -17 -23 -28 -23 -109 0 -77 2 -88 16 -83 32 12
64 18 64 12 0 -8 -61 -31 -72 -28 -5 1 -8 -14 -8 -33 0 -32 2 -35 19 -25 12 6
22 6 25 1 3 -5 -5 -12 -19 -15 l-24 -6 0 -228 c1 -125 4 -220 7 -211 5 10 15
13 29 10 l22 -6 -24 -21 c-13 -12 -27 -19 -30 -16 -3 3 -5 -25 -5 -62 0 -37
-5 -76 -10 -87 -9 -15 -7 -19 7 -19 13 0 11 -6 -12 -30 -15 -16 -31 -27 -35
-25 -3 2 -24 -11 -46 -30 -21 -19 -40 -30 -42 -25 -5 13 -209 13 -217 0 -3 -6
-14 -10 -23 -10 -15 0 -15 2 -2 10 11 7 -1 10 -41 10 -46 0 -59 -4 -79 -25
-17 -18 -27 -22 -34 -14 -8 7 -5 15 8 25 18 13 12 14 -55 14 -69 -1 -72 -2
-49 -15 14 -8 19 -14 12 -15 -7 0 -18 -14 -24 -32 -10 -29 -12 -30 -25 -13 -7
11 -13 31 -13 47 0 26 -2 28 -44 28 -36 0 -50 -6 -74 -30 -24 -23 -31 -26 -36
-15 -3 8 -3 22 1 30 5 14 -5 16 -68 13 -67 -3 -75 -5 -87 -28 l-13 -25 4 27
c4 28 4 28 -49 27 -32 -1 -55 -7 -58 -14 -5 -14 -46 -27 -46 -15 0 5 8 14 18
19 13 8 5 10 -35 11 -35 0 -53 -4 -53 -12 0 -9 -3 -9 -11 -1 -8 8 -18 4 -35
-15 -16 -19 -23 -22 -24 -12 0 9 5 21 12 28 9 9 -4 12 -60 12 -68 0 -72 -1
-78 -25 -5 -21 -9 -23 -21 -14 -7 7 -12 18 -9 26 6 16 -46 18 -74 3 -13 -7
-21 -7 -25 0 -8 13 -185 13 -185 0 0 -5 -10 -14 -21 -21 -20 -10 -21 -9 -16
10 5 19 1 21 -43 21 -29 0 -50 -5 -53 -12 -4 -10 -6 -10 -6 0 -1 8 -18 12 -52
12 -46 0 -55 4 -84 34 -18 20 -37 54 -44 80 -14 56 -16 3559 -1 3620 11 49 37
85 81 111 33 20 55 20 927 23 636 2 905 -1 935 -9 24 -6 55 -25 74 -46 l33
-34 0 -132 0 -132 39 -43 c27 -29 47 -42 66 -42 72 0 95 47 95 198 0 166 -31
258 -114 334 -52 49 -79 60 -105 42 -22 -16 -29 -6 -10 13 16 16 -26 36 -62
29 -21 -4 -29 -2 -29 8 0 23 -141 38 -155 16 -3 -5 -11 -10 -16 -10 -6 0 -7 5
-4 11 5 7 -24 10 -93 8 -99 -3 -100 -3 -86 -23 8 -11 14 -24 14 -27 0 -11 -50
-69 -59 -69 -4 0 -4 21 0 48 12 72 12 72 -25 72 -26 0 -36 -5 -41 -20 -3 -11
-11 -20 -16 -20 -6 0 -7 9 -4 20 6 19 2 20 -128 20 -121 0 -136 -2 -152 -20
-20 -22 -43 -17 -25 6 10 11 -11 13 -132 13 -78 -1 -151 -5 -160 -10 -12 -6
-18 -6 -18 1 0 16 -123 12 -146 -5 -27 -20 -51 -20 -34 0 11 13 6 15 -33 15
-44 0 -46 -2 -63 -41 -17 -36 -20 -39 -31 -23 -7 10 -13 28 -13 40 0 23 -1 23
-145 23 -145 0 -146 0 -155 -25 -13 -32 -32 -31 -24 1 6 24 4 25 -42 25 -27 0
-58 -7 -68 -15z m252 -9 c-10 -7 -18 -25 -18 -40 0 -16 -4 -25 -10 -21 -5 3
-10 22 -10 41 0 31 3 34 28 34 24 -1 25 -2 10 -14z m622 10 c0 -2 -16 -13 -36
-25 -33 -19 -36 -15 -11 17 9 11 47 18 47 8z m300 -11 c17 -9 30 -18 30 -21 0
-2 -9 0 -19 5 -14 8 -22 7 -31 -4 -18 -22 -30 -18 -30 10 0 29 10 31 50 10z
m-163 -36 c-12 -29 -16 -31 -22 -16 -5 11 -1 25 10 37 25 27 29 19 12 -21z
m-467 17 c0 -16 -28 -42 -36 -33 -8 7 14 47 26 47 6 0 10 -6 10 -14z m1100 10
c0 -3 -4 -8 -10 -11 -5 -3 -10 -1 -10 4 0 6 5 11 10 11 6 0 10 -2 10 -4z m161
-14 c-5 -10 -17 -24 -25 -32 -14 -10 -16 -9 -16 7 0 16 24 37 48 42 1 1 -2 -7
-7 -17z m-1084 -13 c-16 -4 -35 -13 -43 -20 -19 -15 -18 0 1 21 10 11 25 15
43 12 l27 -5 -28 -8z m-637 -4 c-7 -8 -20 -15 -29 -15 -11 1 -8 5 9 15 32 18
35 18 20 0z m229 -34 c-20 -28 -39 -40 -39 -26 0 16 46 73 54 65 4 -4 -2 -22
-15 -39z m640 45 c-3 -3 -22 -17 -43 -31 l-38 -26 22 31 c12 17 30 30 42 30
12 0 19 -2 17 -4z m429 -26 c-7 -11 -16 -20 -19 -20 -4 0 -5 9 -2 20 3 11 12
20 19 20 12 0 12 -4 2 -20z m331 -3 c-15 -12 -31 -30 -36 -41 -9 -15 -11 -16
-16 -3 -8 22 30 67 56 67 21 0 21 -1 -4 -23z m-921 -13 c2 -11 -6 -28 -18 -39
-19 -18 -20 -18 -20 1 1 55 31 86 38 38z m310 6 c-13 -21 -28 -27 -28 -10 0 5
8 14 18 19 23 14 24 14 10 -9z m172 5 c11 -13 11 -20 0 -40 -16 -30 -22 -31
-44 -6 -15 16 -15 22 -4 40 15 25 31 27 48 6z m-1292 -15 c-7 -10 -14 -18 -15
-16 -6 6 9 36 18 36 5 0 4 -9 -3 -20z m175 -4 c-29 -25 -43 -25 -43 -1 0 12
18 19 58 24 7 0 1 -10 -15 -23z m321 -1 c-9 -14 -26 -25 -38 -25 -19 1 -18 3
9 25 38 32 50 32 29 0z m1081 4 c-10 -15 -25 -10 -19 6 4 8 10 12 15 9 5 -3 7
-10 4 -15z m309 7 c-21 -15 -30 -14 -19 3 3 6 14 11 23 11 13 0 13 -2 -4 -14z
m-1254 -6 c-19 -13 -30 -13 -30 0 0 6 10 10 23 10 18 0 19 -2 7 -10z m1403
-21 c-17 -17 -37 -1 -22 17 8 10 15 12 23 4 7 -7 7 -13 -1 -21z m-1942 -10
c-13 -11 -26 -17 -29 -14 -8 8 20 35 37 35 12 -1 11 -5 -8 -21z m309 14 c0 -5
-4 -15 -10 -23 -11 -18 -25 -7 -17 15 6 15 27 21 27 8z m170 -1 c0 -15 -24
-32 -44 -32 -20 1 -20 1 3 20 24 21 41 26 41 12z m608 -12 c-7 -11 -20 -20
-28 -20 -11 1 -8 6 9 20 30 25 34 25 19 0z m180 5 c-2 -1 -13 -8 -26 -14 -22
-12 -23 -11 -13 8 7 12 17 18 27 14 8 -3 14 -7 12 -8z m290 -5 c-7 -11 -16
-20 -20 -20 -5 0 -3 9 4 20 7 11 16 20 20 20 5 0 3 -9 -4 -20z m-763 -11 c-4
-5 -13 -9 -22 -9 -13 0 -13 3 -3 15 13 15 35 11 25 -6z m-925 6 c0 -2 -13 -11
-28 -19 -26 -13 -29 -13 -40 5 -11 18 -9 19 28 19 22 0 40 -2 40 -5z m320 -5
c0 -5 -10 -10 -22 -9 -22 0 -22 1 -3 9 11 5 21 9 23 9 1 1 2 -3 2 -9z m780 0
c-8 -5 -22 -9 -30 -9 -10 0 -8 3 5 9 27 12 43 12 25 0z m425 0 c-3 -5 -12 -10
-18 -10 -7 0 -6 4 3 10 19 12 23 12 15 0z m515 6 c0 -3 -11 -17 -25 -32 -29
-31 -33 -24 -7 11 15 22 32 32 32 21z m-2144 -74 c-15 -15 -16 -14 -16 6 0 12
6 31 13 43 12 19 12 19 15 -7 2 -15 -3 -34 -12 -42z m781 62 c-3 -3 -12 -4
-19 -1 -8 3 -5 6 6 6 11 1 17 -2 13 -5z m1443 -20 c0 -8 -4 -12 -10 -9 -5 3
-10 10 -10 16 0 5 5 9 10 9 6 0 10 -7 10 -16z m-30 -14 c0 -12 -35 -31 -44
-23 -8 9 14 33 30 33 8 0 14 -4 14 -10z m-53 -38 c-2 -4 -7 -16 -11 -27 -6
-15 -9 -17 -16 -6 -9 16 9 53 22 45 5 -3 7 -8 5 -12z m123 -38 c0 -8 -7 -14
-15 -14 -15 0 -21 21 -9 33 10 9 24 -2 24 -19z m-2245 -26 c-10 -31 -25 -47
-25 -26 0 24 11 48 22 48 5 0 6 -10 3 -22z m2175 14 c0 -5 -9 -17 -20 -27 -22
-20 -26 -14 -10 16 11 19 30 26 30 11z m-2219 -43 c7 -15 5 -27 -8 -49 -21
-36 -23 -36 -46 -5 -16 23 -16 27 -2 54 17 33 38 33 56 0z m2299 -28 c0 -10
-7 -24 -15 -31 -13 -10 -15 -9 -15 12 0 14 3 28 7 31 12 13 23 7 23 -12z
m-2260 -36 c0 -16 -6 -25 -15 -25 -18 0 -18 5 -5 31 14 26 20 24 20 -6z m2190
17 c0 -5 -11 -14 -25 -20 -24 -11 -25 -10 -15 8 10 20 40 28 40 12z m55 -41
c3 -5 1 -12 -5 -16 -5 -3 -10 1 -10 9 0 18 6 21 15 7z m-2310 -21 c-3 -5 -18
-10 -33 -9 -24 0 -25 1 -7 9 28 12 47 12 40 0z m37 -35 c-9 -19 -21 -35 -25
-35 -5 0 -6 4 -3 9 3 4 10 20 15 35 6 14 15 26 21 26 5 0 2 -16 -8 -35z m2203
5 c-17 -33 -35 -40 -35 -12 0 21 18 42 37 42 11 0 10 -6 -2 -30z m-2243 -91
c-15 -17 -18 -17 -32 -3 -13 14 -13 17 4 29 29 22 51 1 28 -26z m2328 17 c0
-32 -26 -40 -45 -14 -11 17 -12 24 -2 30 25 16 47 9 47 -16z m-90 -31 c0 -14
-4 -25 -10 -25 -5 0 -10 11 -10 25 0 14 5 25 10 25 6 0 10 -11 10 -25z m-2170
2 c0 -7 -13 -21 -30 -30 -24 -15 -30 -15 -30 -4 0 14 36 45 53 46 4 1 7 -5 7
-12z m2240 -32 c-7 -9 -15 -13 -17 -11 -7 7 7 26 19 26 6 0 6 -6 -2 -15z
m-2346 -19 c-5 -14 -9 -15 -15 -5 -5 8 -3 17 4 21 15 9 19 4 11 -16z m2303 -2
c-3 -3 -12 -4 -19 -1 -8 3 -5 6 6 6 11 1 17 -2 13 -5z m-2227 -18 c0 -3 -4 -8
-10 -11 -5 -3 -10 -1 -10 4 0 6 5 11 10 11 6 0 10 -2 10 -4z m-42 -62 c-11
-11 -23 -14 -35 -9 -17 7 -17 8 2 15 11 5 27 9 35 9 12 1 11 -2 -2 -15z m67
-54 c-3 -5 -11 -10 -16 -10 -6 0 -7 5 -4 10 3 6 11 10 16 10 6 0 7 -4 4 -10z
m-69 -38 c-18 -16 -18 -16 -6 6 6 13 14 21 18 18 3 -4 -2 -14 -12 -24z m71
-29 c3 -7 -4 -16 -15 -22 -17 -9 -18 -7 -14 15 4 24 22 28 29 7z m-80 -47 c-7
-13 -15 -22 -20 -19 -5 3 -1 14 9 24 22 25 24 24 11 -5z m47 -17 c-2 -5 0 -17
5 -28 8 -14 7 -22 -4 -31 -13 -11 -15 -8 -15 18 0 17 -3 38 -6 46 -5 12 -2 15
10 10 9 -3 13 -10 10 -15z m-1 -96 c11 -18 19 -78 9 -68 -14 15 -32 75 -22 75
5 0 11 -3 13 -7z m-33 -76 c0 -7 -7 -22 -15 -33 -14 -18 -14 -17 -15 14 0 22
5 32 15 32 8 0 15 -6 15 -13z m70 -45 c0 -11 -37 -32 -44 -25 -8 9 14 33 30
33 8 0 14 -3 14 -8z m-70 -41 c0 -6 -10 -17 -22 -26 -28 -19 -40 1 -12 22 21
15 34 17 34 4z m56 -59 c-15 -15 -16 -15 -16 5 0 12 6 23 13 26 19 6 21 -13 3
-31z m-56 -37 c-7 -8 -20 -15 -29 -15 -11 1 -8 5 9 15 32 18 35 18 20 0z m55
-41 c-8 -20 -16 -39 -16 -43 -1 -3 -4 10 -8 29 -5 29 -3 36 14 42 11 3 21 6
23 7 1 1 -5 -15 -13 -35z m15 -84 c0 -8 -59 -35 -64 -29 -2 2 0 14 4 25 7 17
15 20 34 17 14 -3 26 -9 26 -13z m-69 -69 c-8 -5 -20 -7 -28 -4 -11 4 -10 8 4
19 12 8 21 9 28 3 6 -7 5 -13 -4 -18z m66 -24 c-3 -8 -19 -22 -36 -30 -33 -16
-33 -12 4 35 20 26 43 23 32 -5z m3 -92 c0 -15 -58 -26 -66 -13 -3 5 -1 15 5
22 13 16 61 9 61 -9z m-76 -24 c3 -4 -6 -19 -19 -31 -26 -24 -33 -14 -15 21
11 20 25 25 34 10z m66 -51 c-8 -5 -19 -10 -25 -10 -5 0 -3 5 5 10 8 5 20 10
25 10 6 0 3 -5 -5 -10z m-83 -66 c3 -53 -6 -51 -23 7 -10 34 -10 39 5 39 12 0
17 -11 18 -46z m93 -43 c0 -16 -7 -34 -15 -41 -13 -11 -15 -7 -15 22 0 19 3
38 7 41 14 15 23 6 23 -22z m-77 -58 c-7 -2 -19 -2 -25 0 -7 3 -2 5 12 5 14 0
19 -2 13 -5z m57 -38 c-7 -8 -16 -15 -21 -15 -5 0 -6 7 -3 15 4 8 13 15 21 15
13 0 13 -3 3 -15z m-88 -35 c-5 -13 -11 -19 -14 -14 -3 5 -1 20 4 34 13 31 22
12 10 -20z m93 -64 c-27 -19 -40 -8 -19 15 12 13 21 16 28 9 7 -7 4 -14 -9
-24z m-55 -31 c-7 -8 -20 -15 -29 -15 -12 0 -10 5 9 20 28 21 39 18 20 -5z
m70 -32 c0 -3 -11 -18 -24 -34 -19 -23 -26 -26 -35 -15 -15 17 23 68 44 59 8
-3 15 -7 15 -10z m-10 -142 c-6 -12 -16 -18 -25 -15 -21 8 -19 24 8 52 21 23
22 23 25 3 2 -11 -2 -29 -8 -40z m-52 -18 c14 -12 14 -14 -4 -27 -17 -14 -20
-12 -32 16 -10 24 -10 33 0 46 12 13 13 13 16 -4 2 -10 11 -25 20 -31z m-3
-83 c3 -5 -1 -10 -10 -10 -9 0 -13 5 -10 10 3 6 8 10 10 10 2 0 7 -4 10 -10z
m55 -20 c-11 -20 -30 -28 -30 -12 0 11 22 32 32 32 5 0 4 -9 -2 -20z m-38 -37
c13 -16 13 -22 -7 -56 l-22 -39 -26 33 c-23 30 -24 34 -10 56 18 27 44 30 65
6z m48 -36 c0 -11 -33 -67 -45 -77 -23 -19 -19 4 8 45 18 29 37 45 37 32z
m-94 -105 c-12 -11 -18 7 -10 30 l8 23 4 -23 c2 -13 1 -26 -2 -30z m72 -28
c-11 -24 -13 -25 -25 -7 -12 16 -11 19 9 25 13 3 24 6 25 7 2 1 -3 -11 -9 -25z
m-64 -23 c3 -4 -4 -17 -16 -27 -12 -11 -19 -14 -16 -9 3 6 8 18 11 28 7 19 13
21 21 8z m86 -58 c0 -5 -12 -16 -25 -26 -19 -13 -25 -15 -25 -4 0 7 5 18 12
25 13 13 38 16 38 5z m-90 -38 c0 -8 -2 -15 -4 -15 -2 0 -6 7 -10 15 -3 8 -1
15 4 15 6 0 10 -7 10 -15z m80 -54 c0 -10 -7 -24 -15 -31 -13 -11 -15 -8 -15
13 0 14 -3 33 -7 42 -5 15 -3 16 15 6 12 -7 22 -20 22 -30z m-77 -46 c-15 -19
-30 -30 -32 -24 -3 11 37 59 51 59 5 0 -4 -16 -19 -35z m52 -49 c-16 -14 -32
-20 -33 -15 -6 16 19 39 42 39 19 0 18 -2 -9 -24z m-40 -59 c-4 -8 -12 -18
-20 -20 -10 -4 -10 0 -2 24 6 16 15 25 19 21 5 -5 6 -16 3 -25z m65 -22 c-8
-21 -14 -25 -22 -17 -9 9 -7 17 7 32 23 26 28 20 15 -15z m-14 -133 c-15 -15
-16 -15 -16 0 0 10 6 30 13 45 l12 28 3 -29 c2 -17 -3 -35 -12 -44z m-1 -137
c-14 -16 -25 -23 -25 -18 0 16 44 67 47 56 2 -6 -7 -23 -22 -38z m2285 -40 c0
-8 -5 -15 -12 -15 -6 0 -20 -7 -30 -17 -10 -9 -18 -11 -18 -5 0 9 46 52 56 52
2 0 4 -7 4 -15z m-2276 -36 c-3 -51 -24 -78 -24 -32 0 17 -3 38 -6 46 -3 10 2
17 13 20 10 3 18 5 19 6 1 0 0 -18 -2 -40z m2254 -74 c-6 -14 -15 -25 -20 -25
-4 0 -8 11 -8 25 0 18 5 25 20 25 17 0 18 -3 8 -25z m-2258 -19 c0 -2 -7 -6
-15 -10 -8 -3 -15 -1 -15 4 0 6 7 10 15 10 8 0 15 -2 15 -4z m-70 -50 c0 -7
-7 -19 -15 -26 -16 -13 -20 -3 -9 24 8 20 24 21 24 2z m2350 -44 c-1 -35 -2
-36 -15 -18 -8 11 -15 25 -15 32 0 7 -3 20 -7 29 -5 15 -3 16 15 6 17 -9 22
-21 22 -49z m-2277 -4 c-13 -12 -25 -19 -29 -15 -10 10 16 37 34 37 13 0 12
-4 -5 -22z m-82 -40 c-9 -46 -31 -48 -31 -4 0 29 4 36 19 36 15 0 17 -5 12
-32z m87 -58 c-12 -37 -28 -48 -28 -21 0 10 -3 26 -6 35 -5 12 0 16 19 16 24
0 25 -2 15 -30z m2175 15 c-3 -9 -8 -14 -10 -11 -3 3 -2 9 2 15 9 16 15 13 8
-4z m-2261 -67 c-4 -28 -6 -30 -13 -13 -12 30 -10 45 4 45 10 0 12 -10 9 -32z
m88 -16 c0 -5 -9 -17 -20 -27 -20 -18 -20 -17 -20 8 0 20 5 27 20 27 11 0 20
-4 20 -8z m2200 5 c0 -2 -12 -14 -27 -28 -14 -13 -24 -19 -21 -14 3 6 8 18 11
28 5 14 37 26 37 14z m-2252 -57 c-3 -17 -1 -33 4 -36 11 -7 10 -25 -2 -44 -8
-13 -11 -12 -24 5 -21 27 -20 75 2 91 24 19 25 18 20 -16z m2305 -14 c-21 -27
-34 -25 -26 4 3 11 14 20 25 20 18 0 18 -1 1 -24z m-63 -47 c-12 -16 -24 -28
-26 -26 -9 9 20 57 33 57 11 0 9 -8 -7 -31z m-2225 -49 c-3 -5 -14 -10 -23
-10 -15 0 -15 2 -2 10 20 13 33 13 25 0z m39 -44 c-6 -16 -24 -23 -24 -8 0 10
22 33 27 28 2 -2 1 -11 -3 -20z m2196 16 c0 -12 -30 -52 -40 -52 -5 0 -4 14 1
30 10 26 39 43 39 22z m-2280 -49 c0 -49 -17 -60 -22 -14 -2 29 0 41 9 41 8 0
13 -12 13 -27z m2342 -25 c-6 -6 -19 -7 -29 -4 -16 7 -16 9 7 21 26 14 41 2
22 -17z m-2267 -8 c-8 -9 -15 -23 -15 -30 0 -7 -3 -11 -6 -7 -3 3 -3 19 1 36
4 21 11 28 21 24 13 -5 13 -8 -1 -23z m2249 -54 c-3 -14 -10 -26 -15 -26 -11
0 -11 3 1 36 13 33 23 26 14 -10z m-2234 -69 c0 -27 -2 -29 -14 -17 -8 8 -17
25 -20 37 -6 18 -4 20 14 16 15 -4 20 -14 20 -36z m2190 13 c-7 -12 -21 -20
-38 -20 l-27 0 30 19 c39 25 48 26 35 1z m-2250 -19 l24 -19 -31 -30 -32 -29
-10 28 c-11 32 -4 69 13 69 6 0 22 -9 36 -19z m2304 -6 c-4 -8 -8 -15 -10 -15
-2 0 -4 7 -4 15 0 8 4 15 10 15 5 0 7 -7 4 -15z m-72 -33 c-6 -2 -12 -20 -12
-40 0 -28 -3 -33 -10 -22 -5 8 -10 29 -10 47 0 27 3 30 22 25 12 -3 17 -7 10
-10z m-2162 -12 c0 -5 -6 -10 -14 -10 -8 0 -22 -10 -30 -22 -10 -14 -16 -17
-16 -9 0 8 7 23 17 33 17 19 43 24 43 8z m14 -104 c-3 -14 -13 -26 -21 -26 -8
0 -11 -5 -7 -11 4 -8 0 -8 -15 0 -12 7 -27 9 -33 5 -7 -4 -8 -3 -4 4 4 7 14
12 22 12 8 0 24 11 36 25 25 29 31 27 22 -9z m2156 -16 c-20 -13 -43 -13 -35
0 3 6 16 10 28 10 18 0 19 -2 7 -10z m-2070 -10 c0 -5 -5 -10 -11 -10 -5 0 -7
5 -4 10 3 6 8 10 11 10 2 0 4 -4 4 -10z m2012 0 c0 -5 1 -14 2 -18 1 -5 -16
-23 -36 -41 l-38 -33 -10 26 c-8 21 -5 30 13 50 22 24 66 34 69 16z m-2030
-60 c3 -8 -1 -21 -8 -28 -11 -10 -16 -8 -29 12 -13 20 -14 28 -4 45 12 18 14
18 24 3 7 -9 14 -24 17 -32z m462 41 c8 -12 -31 -44 -44 -36 -8 5 -6 13 6 26
19 21 30 24 38 10z m1386 -5 c0 -15 -18 -31 -26 -23 -7 7 7 37 17 37 5 0 9 -6
9 -14z m-1795 -40 c0 -28 -4 -42 -11 -39 -19 7 -22 50 -5 67 8 9 16 16 16 16
0 0 0 -20 0 -44z m645 42 c0 -2 -17 -19 -37 -38 -20 -19 -34 -30 -30 -24 4 6
11 23 16 38 7 16 18 26 31 26 11 0 20 -1 20 -2z m450 -5 c-1 -12 -29 -47 -34
-42 -7 7 13 49 24 49 5 0 10 -3 10 -7z m-602 -30 c-6 -16 -18 -35 -25 -43 -11
-12 -13 -9 -13 18 0 30 11 41 47 51 2 1 -3 -11 -9 -26z m910 2 c-6 -14 -15
-25 -20 -25 -11 0 -10 7 2 31 16 28 32 23 18 -6z m176 16 c3 -5 -1 -11 -9 -14
-9 -4 -12 -1 -8 9 6 16 10 17 17 5z m126 -16 c-13 -14 -25 -23 -27 -21 -8 8
22 46 36 46 10 0 7 -8 -9 -25z m-1858 -3 c-7 -2 -9 -9 -5 -15 4 -7 -1 -6 -10
2 -20 16 -13 33 10 24 11 -4 13 -8 5 -11z m329 0 c-13 -25 -40 -46 -48 -38 -7
7 36 56 49 56 5 0 4 -8 -1 -18z m138 -9 c-13 -16 -25 -30 -26 -32 -2 -2 -6 -2
-9 1 -9 10 27 58 44 58 12 0 10 -6 -9 -27z m490 -4 c-14 -26 -60 -44 -70 -28
-5 8 2 18 19 26 15 8 31 18 36 23 16 15 27 0 15 -21z m1221 27 c0 -2 -8 -10
-17 -17 -16 -13 -17 -12 -4 4 13 16 21 21 21 13z m-1061 -20 c9 -11 4 -14 -25
-19 -44 -7 -59 -1 -43 19 15 18 53 18 68 0z m277 -7 c-29 -23 -47 -19 -26 6 7
8 22 15 33 15 18 0 17 -2 -7 -21z m536 -34 c-5 -44 -22 -36 -22 10 0 24 4 33
13 29 8 -3 11 -17 9 -39z m95 18 c-8 -9 -21 -13 -27 -11 -9 3 -8 9 4 21 10 9
22 14 28 11 6 -4 4 -12 -5 -21z m-1640 -23 c-27 -22 -37 -25 -37 -12 0 5 10
14 23 20 35 17 42 14 14 -8z m307 5 c-4 -8 -11 -15 -16 -15 -6 0 -5 6 2 15 7
8 14 15 16 15 2 0 1 -7 -2 -15z m171 -33 c-12 -13 -24 22 -12 37 10 12 13 11
15 -8 2 -13 1 -26 -3 -29z m469 34 c-5 -13 -44 -30 -44 -19 0 7 33 32 42 33 4
0 5 -6 2 -14z m166 -21 c-7 -8 -27 -15 -44 -14 l-31 1 29 9 c17 4 34 16 40 26
6 12 11 14 14 5 2 -7 -2 -19 -8 -27z m317 18 c2 -6 -4 -13 -14 -17 -10 -3 -24
-9 -30 -12 -20 -9 -15 24 5 35 19 12 34 10 39 -6z m288 7 c-3 -5 -14 -10 -23
-9 -14 0 -13 2 3 9 27 11 27 11 20 0z m-1862 -6 c11 -11 -5 -34 -24 -34 -17 0
-18 3 -9 20 11 20 22 25 33 14z m320 -13 c-15 -12 -31 -17 -45 -13 -20 5 -19
7 12 18 49 18 58 16 33 -5z m626 10 c9 -6 4 -10 -18 -13 -30 -4 -39 1 -24 15
9 9 25 8 42 -2z m461 -16 c-11 -13 -15 -13 -21 -3 -5 8 -2 15 9 19 23 9 27 3
12 -16z m-1547 4 c-8 -8 -16 -8 -30 0 -16 9 -14 10 12 11 21 0 26 -3 18 -11z
m222 -9 c-3 -5 -12 -10 -18 -10 -7 0 -6 4 3 10 19 12 23 12 15 0z m1420 0 c-3
-5 -11 -10 -16 -10 -6 0 -7 5 -4 10 3 6 11 10 16 10 6 0 7 -4 4 -10z m-1578
-6 c-3 -3 -12 -4 -19 -1 -8 3 -5 6 6 6 11 1 17 -2 13 -5z m636 -1 c-7 -2 -21
-2 -30 0 -10 3 -4 5 12 5 17 0 24 -2 18 -5z m600 0 c-7 -2 -19 -2 -25 0 -7 3
-2 5 12 5 14 0 19 -2 13 -5z m494 1 c-3 -3 -12 -4 -19 -1 -8 3 -5 6 6 6 11 1
17 -2 13 -5z"/>
<path d="M1877 4092 c-10 -10 -17 -32 -17 -49 0 -40 66 -109 112 -118 18 -4
113 -5 210 -3 161 3 179 5 205 24 19 15 29 31 31 55 2 28 -4 40 -35 72 l-39
37 -39 -20 c-42 -21 -60 -19 -29 5 17 13 3 14 -128 15 l-148 0 0 -23 c0 -13
-7 -32 -15 -43 -15 -18 -16 -16 -13 24 l4 42 -42 0 c-27 0 -47 -6 -57 -18z
m253 -2 c-20 -13 -33 -13 -25 0 3 6 14 10 23 10 15 0 15 -2 2 -10z m100 -17
c-1 -5 -7 -19 -15 -33 -10 -18 -14 -20 -15 -8 0 9 -3 23 -6 32 -4 12 0 16 15
16 12 0 21 -3 21 -7z m126 -35 c-15 -21 -16 -22 -16 -2 0 11 6 26 12 32 19 19
22 -4 4 -30z m-266 4 c0 -10 -11 -29 -26 -43 -22 -21 -24 -21 -19 -4 20 59 45
85 45 47z m-196 -7 c-4 -8 -11 -15 -16 -15 -6 0 -5 6 2 15 7 8 14 15 16 15 2
0 1 -7 -2 -15z m241 -19 c-34 -28 -41 -27 -25 3 6 12 21 21 33 21 21 0 20 -2
-8 -24z m165 -11 c-26 -28 -35 -27 -25 4 4 13 15 21 27 21 21 0 21 0 -2 -25z
m-296 -10 c-4 -8 -18 -15 -32 -15 -29 0 -20 15 13 23 11 3 21 5 22 6 1 0 0 -6
-3 -14z"/>
<path d="M2528 4100 c-11 -7 -18 -23 -18 -42 0 -26 2 -29 15 -18 17 15 19 7 5
-21 -16 -28 38 -79 84 -79 69 0 88 70 35 129 -34 36 -89 50 -121 31z m63 -53
c-8 -8 -11 -7 -11 4 0 20 13 34 18 19 3 -7 -1 -17 -7 -23z m29 -27 c-12 -12
-18 -25 -15 -30 4 -6 -3 -10 -14 -10 -30 0 -26 27 7 44 38 21 46 20 22 -4z"/>
<path d="M1600 3635 c-14 -8 -39 -28 -55 -46 -25 -26 -26 -30 -7 -20 12 6 22
8 22 3 0 -16 -29 -34 -45 -28 -8 3 -14 2 -13 -2 1 -4 -5 -20 -14 -37 -9 -18
-16 -56 -17 -93 l-1 -62 24 15 c12 8 26 12 29 8 7 -7 -33 -39 -45 -36 -4 2 -7
-62 -7 -141 -1 -105 3 -146 12 -150 9 -5 9 -7 0 -12 -9 -4 -13 -39 -13 -121
l0 -115 25 16 c27 17 45 21 45 8 0 -5 -14 -15 -32 -23 -45 -20 -48 -39 -6 -39
l33 0 -32 -16 -33 -16 1 -221 c0 -160 4 -224 12 -229 9 -6 9 -8 -1 -8 -10 0
-13 -41 -11 -192 0 -114 5 -198 11 -205 7 -9 7 -13 -1 -13 -6 0 -11 -15 -10
-32 1 -38 11 -70 22 -68 4 1 21 -3 37 -10 34 -14 41 -35 10 -27 -30 8 -32 -5
-8 -52 37 -76 128 -121 244 -121 87 0 167 -29 135 -49 -9 -6 -12 -18 -7 -37 9
-38 10 -54 1 -82 -6 -18 -4 -21 10 -16 16 6 16 5 1 -24 -19 -37 -22 -152 -4
-152 9 0 9 -3 0 -12 -7 -7 -12 -36 -12 -64 0 -42 5 -59 27 -86 47 -56 76 -67
126 -47 18 7 145 124 297 275 146 144 276 268 290 275 20 12 182 15 890 19
862 5 865 5 905 27 47 25 85 64 111 113 18 33 19 75 19 900 l0 865 -22 41
c-28 52 -79 97 -149 130 -53 25 -56 25 -69 8 -8 -11 -15 -23 -15 -29 0 -5 -4
-4 -9 4 -5 8 -7 20 -4 28 4 10 -12 13 -72 13 -72 0 -77 -1 -64 -17 13 -17 13
-17 -7 0 -14 11 -38 17 -73 17 -49 0 -53 -2 -73 -35 -24 -42 -35 -39 -20 4
l11 31 -56 0 c-48 0 -61 -4 -84 -26 -32 -30 -61 -24 -33 7 16 18 16 19 -19 19
-19 0 -38 -6 -40 -12 -4 -10 -6 -10 -6 0 -1 15 -43 16 -59 0 -9 -9 -12 -9 -12
0 0 16 -72 16 -88 0 -9 -9 -12 -9 -12 0 0 8 -69 11 -272 9 -273 -2 -273 -2
-283 -24 -5 -13 -13 -23 -18 -23 -4 0 -3 9 3 19 15 28 14 29 -26 29 -27 0 -38
-5 -46 -23 -9 -20 -13 -21 -24 -11 -7 8 -24 11 -39 9 -20 -4 -24 -2 -19 11 10
25 -31 20 -49 -6 l-16 -23 0 23 c-1 27 -26 29 -54 5 -19 -17 -20 -17 -14 0 6
15 -2 17 -74 17 -73 0 -80 -2 -89 -22 l-9 -23 0 22 c-1 20 -6 22 -61 22 -56
-1 -60 -2 -60 -24 0 -12 -7 -26 -16 -29 -14 -5 -16 -1 -11 24 6 30 6 30 -38
30 -38 0 -50 -5 -74 -32 -15 -17 -31 -27 -34 -21 -3 5 3 20 14 31 l20 22 -35
0 c-25 0 -38 -6 -46 -20 -6 -11 -15 -20 -20 -20 -6 0 -10 9 -10 20 0 30 -36
26 -44 -5 -4 -15 -11 -23 -17 -19 -6 3 -9 15 -6 25 5 18 -4 19 -218 18 -214
-1 -222 -1 -218 -20 3 -10 2 -27 -2 -36 -6 -16 -9 -14 -21 10 -8 15 -12 32 -9
37 9 14 -25 10 -55 -5z m240 -3 c0 -10 -22 -32 -32 -32 -13 0 -9 28 5 33 19 8
27 8 27 -1z m1400 3 c0 -2 -13 -11 -30 -20 -30 -16 -40 -9 -18 13 12 12 48 17
48 7z m-865 -39 c-16 -13 -32 -22 -35 -19 -7 6 39 43 54 43 6 0 -2 -11 -19
-24z m314 15 c12 -7 11 -12 -1 -30 -15 -22 -16 -22 -20 9 -5 32 -2 35 21 21z
m463 -41 c-9 -16 -21 -30 -25 -30 -14 0 -18 26 -8 54 9 23 14 25 30 16 19 -10
19 -11 3 -40z m507 40 c-9 -5 -20 -26 -23 -45 -9 -44 -18 -44 -32 0 -10 32 -9
35 15 44 36 13 62 14 40 1z m618 -24 c-3 -7 -17 -16 -32 -18 l-26 -5 28 29
c26 27 41 24 30 -6z m-2672 4 c-10 -11 -23 -20 -29 -20 -6 1 0 10 13 20 30 26
39 26 16 0z m169 5 c-6 -15 -35 -35 -50 -35 -4 0 3 11 16 25 26 28 42 33 34
10z m276 3 c0 -7 -5 -20 -10 -28 -8 -12 -10 -9 -10 13 0 15 5 27 10 27 6 0 10
-6 10 -12z m793 -19 c-41 -21 -53 -23 -53 -11 0 12 63 40 78 35 6 -3 -5 -14
-25 -24z m150 -10 c-8 -28 -21 -13 -15 17 3 16 7 21 12 14 4 -7 5 -21 3 -31z
m347 33 c0 -13 -23 -32 -37 -32 -11 0 -11 5 -3 20 10 19 40 28 40 12z m460 1
c0 -16 -16 -31 -34 -35 -27 -5 -30 15 -4 28 29 14 38 16 38 7z m337 -9 c8 -21
-40 -69 -61 -61 -29 11 -31 38 -5 58 30 23 58 24 66 3z m-1897 -2 c0 -5 -8
-17 -19 -26 -17 -16 -19 -16 -24 3 -2 11 -2 22 1 25 9 9 42 7 42 -2z m280 -1
c0 -5 -7 -11 -15 -15 -9 -3 -15 0 -15 9 0 8 7 15 15 15 8 0 15 -4 15 -9z m940
-6 c-7 -9 -15 -13 -17 -11 -7 7 7 26 19 26 6 0 6 -6 -2 -15z m935 -5 c-10 -11
-20 -18 -23 -15 -7 6 18 35 31 35 5 0 2 -9 -8 -20z m-1000 -22 c-14 -11 -25
-27 -26 -36 0 -11 -2 -13 -6 -4 -3 7 0 26 7 41 8 21 17 27 31 24 17 -5 17 -7
-6 -25z m324 -10 c-5 -10 -19 -23 -31 -29 -19 -10 -20 -9 -14 17 9 36 36 60
47 42 4 -7 3 -20 -2 -30z m453 -20 c-2 -10 -8 -18 -13 -18 -11 0 -11 7 -2 51
6 32 7 33 13 9 4 -14 4 -33 2 -42z m-1537 31 c-3 -8 -19 -22 -35 -31 -28 -16
-30 -16 -30 1 0 10 14 24 33 33 36 17 40 17 32 -3z m127 6 c0 -5 -5 -11 -11
-13 -6 -2 -11 4 -11 13 0 9 5 15 11 13 6 -2 11 -8 11 -13z m165 -17 c-1 -17
-8 -33 -15 -36 -9 -3 -11 4 -6 25 13 52 23 58 21 11z m-1090 -4 c-19 -18 -32
-24 -44 -19 -15 6 -11 11 22 25 22 10 42 19 44 19 2 1 -8 -11 -22 -25z m464
-17 c-29 -29 -36 -16 -9 18 14 18 23 24 26 16 2 -7 -5 -22 -17 -34z m2054 22
c-11 -16 -64 -39 -69 -30 -4 5 9 18 26 29 32 19 54 20 43 1z m-2210 -9 c-20
-23 -29 -21 -19 4 3 9 13 16 22 16 13 0 12 -3 -3 -20z m930 0 c-18 -20 -46
-26 -59 -13 -5 6 28 20 73 32 2 1 -4 -8 -14 -19z m784 -11 c-12 -23 -34 -26
-25 -3 3 9 6 20 6 25 0 4 7 6 15 3 11 -5 12 -11 4 -25z m-2204 11 c-3 -5 -11
-10 -16 -10 -6 0 -7 5 -4 10 3 6 11 10 16 10 6 0 7 -4 4 -10z m785 1 c0 -17
-18 -21 -24 -6 -3 9 0 15 9 15 8 0 15 -4 15 -9z m800 -6 c-27 -14 -36 -13 -25
4 3 6 16 11 28 11 21 -1 21 -1 -3 -15z m330 10 c0 -8 -62 -37 -67 -31 -11 11
20 36 43 36 13 0 24 -2 24 -5z m-1800 -20 c0 -9 -9 -15 -22 -15 -22 1 -23 1
-4 15 25 19 26 19 26 0z m760 0 c-7 -8 -20 -15 -29 -15 -13 1 -13 3 3 15 26
19 42 19 26 0z m774 0 c-4 -8 -11 -15 -16 -15 -6 0 -5 6 2 15 7 8 14 15 16 15
2 0 1 -7 -2 -15z m626 0 c0 -8 -4 -15 -10 -15 -5 0 -7 7 -4 15 4 8 8 15 10 15
2 0 4 -7 4 -15z m310 -6 c0 -6 -4 -7 -10 -4 -5 3 -10 11 -10 16 0 6 5 7 10 4
6 -3 10 -11 10 -16z m250 -3 c0 -7 -6 -20 -13 -30 -12 -16 -13 -14 -9 18 4 32
22 43 22 12z m-2870 10 c0 -3 -14 -15 -32 -27 -29 -21 -31 -14 -5 19 9 11 37
17 37 8z m603 -3 c-7 -2 -19 -2 -25 0 -7 3 -2 5 12 5 14 0 19 -2 13 -5z m164
1 c-3 -3 -12 -4 -19 -1 -8 3 -5 6 6 6 11 1 17 -2 13 -5z m2048 -13 c-21 -19
-89 -41 -70 -22 13 13 67 41 80 41 5 0 1 -8 -10 -19z m59 -56 c-10 -8 -23 -14
-29 -14 -5 -1 1 8 15 19 14 10 27 17 29 14 3 -2 -4 -11 -15 -19z m-2939 6 c3
-6 -1 -25 -8 -43 -14 -33 -14 -33 -26 -10 -7 12 -9 32 -6 42 7 21 30 27 40 11z
m2536 -14 c220 -2 239 -3 259 -22 21 -19 23 -19 52 -2 36 21 44 17 28 -12 -6
-13 -21 -21 -35 -21 -23 0 -25 -4 -25 -45 0 -47 7 -53 43 -33 20 10 21 10 8
-5 -7 -10 -22 -17 -33 -17 -17 0 -18 -7 -17 -64 2 -61 3 -65 31 -77 16 -6 33
-20 38 -30 13 -23 12 -38 0 -19 -9 13 -12 13 -25 -4 -8 -11 -21 -16 -30 -13
-10 5 -15 0 -15 -13 0 -16 7 -20 33 -21 l32 -1 -30 -7 -30 -6 -3 -127 c-2
-107 0 -127 12 -122 8 3 17 0 21 -6 4 -7 -2 -14 -14 -17 -17 -4 -21 -13 -21
-45 0 -32 3 -39 15 -34 8 3 22 9 30 12 28 11 15 -21 -15 -38 -37 -21 -41 -58
-7 -59 l22 0 -22 -16 c-18 -12 -23 -25 -23 -56 l0 -40 25 23 c37 35 43 16 6
-20 -18 -18 -31 -42 -31 -56 0 -27 3 -28 31 -14 15 8 19 7 19 -4 0 -9 -11 -18
-25 -22 -18 -4 -25 -13 -25 -30 0 -14 7 -27 15 -30 8 -4 15 -12 15 -19 0 -7
-7 -18 -15 -25 -21 -17 -19 -30 5 -30 17 0 18 -3 8 -25 -6 -14 -15 -25 -20
-25 -4 0 -8 -34 -8 -75 0 -52 4 -75 12 -75 9 0 9 -3 0 -12 -15 -15 -16 -78 -2
-78 7 0 7 -6 0 -19 -17 -33 -13 -53 10 -46 27 9 25 -7 -5 -60 -22 -37 -23 -43
-10 -49 20 -7 9 -28 -12 -24 -11 2 -19 -8 -25 -30 -8 -31 -28 -36 -28 -6 0 11
-16 14 -70 14 -66 0 -71 -2 -80 -25 -13 -33 -34 -33 -26 0 6 25 5 25 -54 25
-47 0 -64 -4 -80 -20 l-20 -20 0 20 c0 17 -7 20 -49 20 -59 0 -81 -7 -81 -26
0 -8 -4 -14 -9 -14 -5 0 -7 9 -4 20 5 18 0 20 -58 19 -38 0 -73 -7 -86 -15
-20 -13 -23 -13 -23 1 0 22 -132 22 -150 0 -16 -19 -31 -19 -24 0 5 12 -3 15
-37 15 -33 0 -49 -6 -72 -27 l-29 -28 7 28 7 27 -62 0 c-34 0 -71 -5 -82 -11
-14 -8 -23 -8 -31 0 -15 15 -90 14 -105 -1 -7 -7 -12 -20 -12 -31 0 -11 -5
-17 -12 -14 -7 2 -13 16 -13 30 l1 27 -83 0 c-68 0 -84 -3 -92 -17 -10 -17
-10 -17 -11 0 0 15 -10 17 -75 17 -53 0 -75 -4 -76 -12 0 -10 -2 -10 -6 0 -8
20 -158 16 -194 -5 -33 -20 -45 -43 -27 -55 10 -6 10 -8 1 -8 -7 0 -20 -17
-29 -37 -16 -38 -16 -38 -25 -13 -10 24 -13 22 -110 -77 -55 -56 -98 -107 -95
-112 4 -5 -3 -13 -15 -16 -12 -4 -38 -23 -59 -41 -29 -26 -40 -32 -47 -22 -4
7 -10 76 -13 153 -6 157 -11 170 -82 218 -37 24 -44 26 -52 13 -9 -13 -12 -12
-24 2 -12 15 -13 14 -9 -13 3 -16 -3 -48 -12 -70 l-18 -40 -16 26 c-13 20 -15
32 -6 61 5 20 17 39 27 41 9 3 -7 5 -37 6 -39 1 -60 -4 -74 -16 -19 -17 -20
-17 -14 0 5 14 0 17 -33 17 -32 0 -43 5 -57 27 -17 25 -18 79 -21 778 -2 412
0 769 3 793 4 23 17 55 30 70 l23 27 299 5 c276 5 1520 3 2064 -3z m369 -93
c-18 -21 -24 -10 -8 15 7 12 14 17 16 11 2 -6 -2 -17 -8 -26z m-2900 -95 c0
-9 -63 -18 -72 -10 -4 3 -5 16 -2 28 6 21 7 21 40 6 19 -9 34 -20 34 -24z m48
-46 c-4 -32 -38 -46 -38 -16 0 20 18 43 33 43 4 0 7 -12 5 -27z m2794 4 c3
-15 0 -24 -9 -24 -14 0 -16 7 -7 31 8 21 11 20 16 -7z m-2877 -26 c-3 -6 -14
-11 -23 -11 -15 1 -15 2 2 15 21 16 32 13 21 -4z m2944 0 c-23 -19 -39 -19
-39 -1 0 5 8 11 18 13 37 10 43 6 21 -12z m-2859 -31 c0 -10 -41 -30 -61 -30
-16 0 1 21 25 30 29 12 36 12 36 0z m0 -105 c0 -8 -9 -19 -20 -25 -17 -9 -20
-8 -20 9 0 11 8 22 18 24 9 3 18 5 20 6 1 0 2 -6 2 -14z m-68 -17 c-7 -7 -12
-21 -12 -32 0 -23 -16 -53 -24 -45 -11 11 17 89 32 89 12 0 13 -3 4 -12z
m2932 -14 c4 -9 4 -19 1 -22 -3 -3 -5 0 -5 7 0 7 -4 9 -10 6 -5 -3 -10 -15
-10 -26 0 -10 -4 -19 -9 -19 -6 0 -6 12 0 32 5 18 9 34 9 35 0 11 19 0 24 -13z
m-2884 -59 c-7 -9 -15 -13 -19 -10 -3 3 1 10 9 15 21 14 24 12 10 -5z m2827
-18 c-6 -20 -27 -19 -27 2 0 14 5 19 15 14 9 -3 14 -10 12 -16z m93 -28 c0
-19 -34 -44 -49 -35 -5 3 -1 21 8 40 12 25 19 31 29 24 6 -6 12 -19 12 -29z
m-2973 -19 c-24 -20 -41 -13 -32 12 4 10 15 13 30 10 l24 -4 -22 -18z m73 -15
c0 -17 -47 -51 -57 -41 -7 7 36 56 49 56 4 0 8 -7 8 -15z m2880 -75 c-37 -28
-45 -24 -18 9 15 18 27 25 33 19 7 -6 1 -16 -15 -28z m20 -76 c0 -8 -7 -14
-15 -14 -7 0 -18 -8 -24 -17 -9 -16 -12 -16 -24 -3 -10 10 -12 22 -7 36 6 16
15 20 39 16 18 -2 31 -10 31 -18z m-2905 -63 c-3 -6 -14 -11 -23 -11 -15 1
-15 2 2 15 21 16 32 13 21 -4z m-55 -19 c0 -14 -39 -46 -47 -39 -3 4 2 16 12
27 19 21 35 26 35 12z m2938 -29 c-15 -15 -30 -25 -32 -22 -10 9 25 49 42 49
13 0 11 -6 -10 -27z m-2884 -50 c-12 -34 -30 -40 -39 -13 -4 14 -1 28 11 41
24 26 41 9 28 -28z m-89 -18 c-33 -27 -42 -26 -25 4 6 12 20 21 33 21 21 -1
20 -2 -8 -25z m2960 5 c-3 -5 -11 -10 -16 -10 -6 0 -7 5 -4 10 3 6 11 10 16
10 6 0 7 -4 4 -10z m-2882 -64 c-11 -14 -21 -20 -25 -13 -10 17 3 37 24 37 18
0 18 -1 1 -24z m-53 -21 c-7 -8 -19 -15 -26 -15 -8 0 -14 -5 -14 -12 0 -6 -3
-9 -6 -6 -11 12 17 48 38 48 17 0 18 -2 8 -15z m70 -53 c0 -14 -48 -33 -55
-22 -4 6 3 10 14 10 11 0 23 5 26 10 8 12 15 13 15 2z m-77 -63 c-10 -20 -19
-27 -25 -21 -6 6 -4 19 7 36 23 35 37 23 18 -15z m2943 -7 c-22 -23 -29 -10
-9 18 11 16 18 19 21 11 2 -7 -3 -20 -12 -29z m-2866 -17 c0 -25 -6 -37 -21
-46 -33 -17 -39 3 -13 44 13 20 26 37 29 37 3 0 5 -16 5 -35z m2885 -34 c-3
-6 -16 -16 -28 -22 -21 -11 -21 -10 2 15 23 25 40 29 26 7z m-2920 -70 c-34
-21 -44 -19 -25 4 7 8 22 15 34 15 18 0 17 -2 -9 -19z m2893 -47 c-11 -23 -28
-33 -28 -16 1 26 14 50 25 45 11 -4 11 -10 3 -29z m-2938 13 c0 -17 -34 -49
-43 -41 -7 7 24 53 36 54 4 0 7 -6 7 -13z m49 -54 c-8 -9 -16 -10 -22 -4 -13
13 0 31 19 24 11 -4 12 -8 3 -20z m2841 18 c0 -5 -9 -19 -20 -32 l-19 -24 -1
26 c0 14 3 29 7 32 9 10 33 8 33 -2z m-2909 -83 c-38 -37 -39 -30 -4 25 21 33
28 38 31 24 2 -11 -9 -31 -27 -49z m2961 22 c-19 -32 -35 -28 -26 8 4 13 14
22 25 22 17 0 17 -1 1 -30z m-2864 -47 c-5 -24 -25 -27 -31 -3 -4 15 0 20 15
20 13 0 18 -6 16 -17z m-85 -20 c-3 -10 -11 -24 -17 -31 -8 -11 -11 -10 -17 5
-4 12 0 22 15 30 27 16 26 16 19 -4z m87 -62 c0 -13 -29 -35 -37 -28 -7 8 15
37 28 37 5 0 9 -4 9 -9z m2900 -46 c0 -40 -11 -43 -59 -19 l-33 16 28 29 c35
37 64 25 64 -26z m-2990 20 c-13 -16 -40 -20 -40 -7 0 14 12 22 33 22 16 0 17
-3 7 -15z m79 -57 c0 -7 -4 -22 -9 -33 -7 -18 -8 -18 -14 -2 -15 44 -15 47 4
47 11 0 20 -6 19 -12z m2893 -25 c10 -9 18 -30 18 -47 0 -28 -3 -31 -32 -33
-49 -4 -59 10 -41 57 18 44 27 48 55 23z m-2962 -36 c-19 -18 -39 -31 -43 -29
-13 6 44 62 62 62 10 0 3 -12 -19 -33z m66 -53 c-15 -14 -31 -23 -34 -20 -9 9
30 46 47 46 11 -1 8 -8 -13 -26z m2889 -44 c-9 -16 -18 -30 -20 -30 -3 0 -5
14 -5 30 0 23 4 30 20 30 20 0 20 -1 5 -30z m-2819 5 c-21 -16 -32 -13 -21 4
3 6 14 11 23 11 15 -1 15 -2 -2 -15z m1316 -30 c-15 -13 -31 -21 -35 -18 -13
8 33 52 49 46 9 -3 5 -11 -14 -28z m499 2 c3 -24 -3 -42 -18 -59 -22 -25 -30
-23 -49 13 -15 30 -15 32 7 55 17 18 26 21 40 13 11 -5 20 -15 20 -22z m-1851
15 c0 -15 -28 -47 -35 -40 -8 8 13 48 25 48 6 0 10 -4 10 -8z m1212 -47 c-21
-24 -28 -28 -33 -16 -3 9 5 26 20 42 36 37 47 14 13 -26z m298 30 c-33 -25
-48 -27 -35 -5 7 11 41 28 59 29 6 1 -5 -10 -24 -24z m162 -15 c-9 -16 -20
-26 -25 -21 -12 12 13 60 28 54 10 -3 10 -11 -3 -33z m658 32 c0 -8 -43 -32
-55 -32 -14 0 -2 18 18 28 28 13 37 14 37 4z m-1933 -28 c-9 -9 -28 6 -21 18
4 6 10 6 17 -1 6 -6 8 -13 4 -17z m2061 9 c-5 -25 -28 -28 -28 -4 0 12 6 21
16 21 9 0 14 -7 12 -17z m124 -8 c-2 -14 -6 -25 -8 -25 -2 0 -4 11 -4 25 0 14
4 25 9 25 4 0 6 -11 3 -25z m-1667 -25 c-22 -25 -37 -26 -28 -2 11 31 25 44
36 33 7 -7 5 -17 -8 -31z m128 20 c-6 -24 -23 -37 -23 -18 0 12 18 38 26 38 1
0 0 -9 -3 -20z m1750 0 c-7 -27 -33 -48 -33 -27 0 26 11 47 25 47 8 0 11 -8 8
-20z m-2413 -31 c0 -3 -7 -12 -15 -19 -8 -7 -15 -19 -15 -26 0 -21 -18 -17
-25 6 -4 11 1 33 12 50 16 28 19 29 30 13 7 -9 13 -20 13 -24z m1210 11 c-6
-12 -14 -19 -17 -17 -2 3 1 15 7 27 6 12 14 19 17 17 2 -3 -1 -15 -7 -27z
m410 11 c-16 -32 -30 -34 -30 -7 0 19 5 26 20 26 17 0 19 -3 10 -19z m160 12
c0 -5 -4 -14 -9 -21 -6 -10 -10 -9 -14 7 -3 14 0 21 9 21 8 0 14 -3 14 -7z
m55 -27 c-22 -19 -42 -30 -44 -25 -5 15 28 47 53 52 11 2 23 5 26 5 3 1 -13
-14 -35 -32z m-2145 -1 c0 -15 -38 -40 -47 -31 -3 3 2 8 11 12 9 3 16 15 16
26 0 10 5 16 10 13 6 -3 10 -13 10 -20z m1222 -17 c-6 -6 -19 -7 -29 -4 -16 7
-16 9 7 28 23 19 25 19 28 3 2 -9 -1 -22 -6 -27z m1107 4 c-6 -18 -15 -29 -20
-26 -5 3 -2 19 7 35 20 39 28 33 13 -9z m-1411 -11 c-4 -37 -22 -32 -26 6 -3
27 0 32 13 27 10 -4 15 -16 13 -33z m447 29 c3 -5 -1 -10 -9 -10 -9 0 -16 -5
-16 -12 0 -6 -2 -9 -5 -6 -7 7 5 38 15 38 5 0 12 -4 15 -10z m303 -19 c-30
-38 -40 -39 -27 -1 7 20 18 30 31 30 19 0 19 -1 -4 -29z m158 14 c-21 -16 -32
-13 -21 4 3 6 14 11 23 11 15 -1 15 -2 -2 -15z m189 6 c3 -5 -2 -17 -11 -25
-20 -20 -19 -21 -19 9 0 24 18 34 30 16z m-1882 -36 c-22 -16 -27 -13 -18 15
5 17 9 19 21 9 12 -10 12 -13 -3 -24z m2321 10 c-4 -8 -8 -15 -10 -15 -2 0 -4
7 -4 15 0 8 4 15 10 15 5 0 7 -7 4 -15z m191 6 c-8 -15 -63 -40 -70 -33 -9 9
37 42 58 42 10 0 16 -4 12 -9z m-1485 -26 c-7 -8 -16 -15 -21 -15 -5 0 -1 9 8
20 9 11 19 17 21 15 3 -3 -1 -11 -8 -20z m-1094 0 c-8 -8 -20 -15 -27 -15 -9
0 -8 4 1 15 7 8 19 15 27 15 12 0 12 -2 -1 -15z m889 6 c3 -5 1 -12 -5 -16 -5
-3 -10 1 -10 9 0 18 6 21 15 7z m350 -10 c-8 -13 -35 -15 -35 -2 0 5 8 11 18
13 21 5 26 2 17 -11z m132 2 c-9 -9 -19 -14 -23 -11 -10 10 6 28 24 28 15 0
15 -1 -1 -17z m974 7 c10 0 19 -4 19 -10 0 -5 -18 -10 -40 -10 -38 0 -49 8
-33 24 4 3 13 4 21 1 7 -3 22 -5 33 -5z m-136 -10 c-3 -5 -23 -10 -43 -9 -30
0 -33 2 -17 9 28 12 67 12 60 0z m-2045 -35 c-16 -19 -30 -19 -30 0 0 17 33
38 38 24 2 -5 -2 -16 -8 -24z m102 13 c-7 -7 -12 -8 -12 -2 0 6 3 14 7 17 3 4
9 5 12 2 2 -3 -1 -11 -7 -17z m508 17 c0 -12 -24 -55 -32 -55 -4 0 -8 14 -8
30 0 23 4 30 20 30 11 0 20 -2 20 -5z m938 -2 c-10 -2 -26 -2 -35 0 -10 3 -2
5 17 5 19 0 27 -2 18 -5z m309 1 c-3 -3 -12 -4 -19 -1 -8 3 -5 6 6 6 11 1 17
-2 13 -5z m461 -1 c-10 -2 -26 -2 -35 0 -10 3 -2 5 17 5 19 0 27 -2 18 -5z
m-1784 -36 c-5 -13 -44 -41 -44 -31 0 3 5 14 10 25 12 21 42 27 34 6z m-451
-10 c7 -19 -4 -33 -30 -41 -37 -12 -45 3 -15 29 31 28 38 30 45 12z m24 -79
c-2 -13 -4 -3 -4 22 0 25 2 35 4 23 2 -13 2 -33 0 -45z m363 27 c-7 -8 -17
-15 -22 -15 -6 0 -5 7 2 15 7 8 17 15 22 15 6 0 5 -7 -2 -15z m-398 -27 c-14
-14 -82 -38 -82 -29 0 10 54 39 75 40 14 1 16 -2 7 -11z m461 -8 c-19 -22 -26
-21 -17 4 3 9 12 16 20 16 11 0 10 -4 -3 -20z m-33 -24 c0 -2 -16 -11 -35 -20
-19 -9 -35 -23 -35 -31 0 -17 -16 -20 -24 -6 -10 15 5 42 28 51 22 9 66 13 66
6z m-390 -26 c0 -5 -5 -10 -11 -10 -5 0 -7 5 -4 10 3 6 8 10 11 10 2 0 4 -4 4
-10z m-34 -32 c4 -6 3 -8 -3 -5 -6 4 -18 -8 -27 -26 -8 -17 -16 -30 -16 -27 0
3 -4 20 -9 38 -9 31 -9 32 19 32 16 0 32 -5 36 -12z m277 -12 c-21 -28 -24
-28 -16 2 3 12 12 22 20 22 11 0 10 -5 -4 -24z m-45 -48 c-5 -13 -54 -29 -63
-20 -7 7 34 31 53 32 8 0 12 -5 10 -12z m-98 -53 c-7 -8 -22 -15 -34 -15 -19
0 -18 2 9 24 30 25 47 18 25 -9z m-160 -20 c-26 -27 -46 -24 -30 6 6 10 20 19
32 19 21 0 21 0 -2 -25z m104 -4 c7 -10 -32 -47 -40 -38 -3 3 -3 15 1 26 6 21
29 28 39 12z m156 3 c0 -4 -12 -18 -27 -32 -25 -23 -27 -23 -34 -6 -3 11 -2
25 3 32 11 12 58 17 58 6z m-89 -47 c-10 -9 -11 -8 -5 6 3 10 9 15 12 12 3 -3
0 -11 -7 -18z m-147 -12 c-10 -26 -40 -37 -54 -20 -10 12 -9 15 8 15 12 0 24
5 27 10 10 16 25 12 19 -5z m102 -42 c-3 -3 -26 -6 -51 -7 -35 -1 -42 1 -31 9
14 11 92 8 82 -2z m-106 -47 c0 -14 -29 -30 -38 -21 -3 3 0 5 6 5 7 0 12 7 12
15 0 8 5 15 10 15 6 0 10 -6 10 -14z m57 -40 c-19 -19 -27 -20 -27 -3 0 20 22
39 33 28 6 -6 4 -16 -6 -25z m-77 -31 c-26 -28 -40 -32 -40 -11 0 11 32 30 59
35 3 1 -6 -10 -19 -24z"/>
<path d="M1986 2864 c-17 -16 -21 -35 -8 -33 25 4 32 -4 9 -11 -18 -6 -36 -4
-53 5 -14 7 -34 10 -45 8 -41 -11 -81 -93 -45 -93 25 0 6 -38 -24 -49 -19 -6
-30 -18 -34 -38 -7 -31 7 -83 23 -83 10 0 26 -47 22 -67 -1 -8 5 -10 16 -6 16
6 16 5 5 -9 -22 -27 28 -93 87 -114 25 -10 61 -23 80 -31 18 -7 44 -13 57 -13
30 0 158 52 183 74 20 18 81 155 81 182 0 10 -14 53 -32 96 -26 66 -39 86 -77
114 -30 24 -53 34 -68 31 -13 -2 -23 0 -23 4 0 5 -6 9 -13 9 -8 0 -22 9 -32
20 -21 23 -45 26 -64 8 -11 -10 -13 -10 -7 0 10 18 -19 15 -38 -4z m227 -61
c2 -5 -5 -17 -16 -27 -18 -17 -20 -17 -14 -2 4 10 7 22 7 27 0 11 17 12 23 2z
m-325 -23 c-7 -11 -15 -15 -17 -9 -2 6 3 15 10 20 20 12 21 11 7 -11z m162 5
c-7 -8 -18 -15 -24 -15 -6 0 -2 7 8 15 25 19 32 19 16 0z m-68 -50 c-5 -28
-22 -44 -22 -21 0 21 11 46 20 46 4 0 5 -11 2 -25z m153 -13 c-31 -30 -43 -23
-20 12 10 15 22 23 31 19 11 -4 9 -11 -11 -31z m-214 -20 c-5 -10 -17 -24 -25
-32 -14 -11 -16 -9 -16 8 0 12 8 26 18 31 26 16 34 13 23 -7z m294 -22 c-10
-11 -23 -20 -28 -20 -6 0 -2 9 8 20 10 11 23 20 28 20 6 0 2 -9 -8 -20z m-155
1 c0 -6 -4 -13 -10 -16 -5 -3 -10 1 -10 9 0 9 5 16 10 16 6 0 10 -4 10 -9z
m-220 -8 c-1 -10 -36 -53 -44 -53 -3 0 0 14 5 30 10 26 40 44 39 23z m299 4
c-2 -1 -12 -9 -21 -16 -15 -12 -18 -11 -18 3 0 10 8 16 22 16 12 0 19 -1 17
-3z m-149 -31 c-20 -19 -65 -32 -55 -16 7 11 41 28 60 29 5 1 3 -5 -5 -13z
m300 -5 c0 -12 -20 -25 -27 -18 -7 7 6 27 18 27 5 0 9 -4 9 -9z m-62 -46 c10
-21 8 -26 -8 -35 -15 -8 -18 -7 -14 3 2 7 0 25 -5 40 -13 34 11 27 27 -8z
m-321 -12 c-13 -13 -20 -14 -29 -5 -9 9 -8 15 8 26 26 20 44 2 21 -21z m173 9
c-14 -2 -30 -8 -37 -14 -17 -13 -37 0 -24 16 6 7 25 10 48 7 31 -4 33 -6 13
-9z m-228 -24 c-6 -6 -15 -8 -19 -4 -4 4 -1 11 7 16 19 12 27 3 12 -12z m130
-19 c-36 -22 -41 -15 -12 16 17 18 26 22 31 13 5 -7 -2 -18 -19 -29z m161 17
c-15 -13 -30 -22 -32 -20 -7 7 31 44 46 44 8 0 2 -10 -14 -24z m-233 -61 c-17
-18 -26 -22 -31 -13 -11 17 9 38 34 38 20 0 20 -1 -3 -25z m155 5 c-3 -5 -12
-10 -18 -10 -7 0 -6 4 3 10 19 12 23 12 15 0z m152 4 c-3 -3 -12 -4 -19 -1 -8
3 -5 6 6 6 11 1 17 -2 13 -5z m-217 -28 c0 -8 -7 -17 -16 -20 -30 -11 -37 -6
-19 14 21 23 35 26 35 6z m190 -2 c0 -6 -65 -34 -77 -34 -4 1 3 10 16 20 21
18 61 28 61 14z m-265 -54 c-3 -5 -13 -10 -21 -10 -8 0 -12 5 -9 10 3 6 13 10
21 10 8 0 12 -4 9 -10z m161 -25 c-3 -8 -17 -15 -31 -15 l-26 0 28 24 c27 24
40 20 29 -9z"/>
<path d="M2630 2865 c-6 -8 -9 -19 -5 -25 3 -5 -1 -13 -9 -16 -8 -3 -18 -14
-21 -25 -4 -11 -11 -17 -16 -13 -5 3 -7 14 -4 25 5 16 1 19 -27 19 -38 -1 -72
-23 -65 -42 2 -7 0 -21 -4 -30 -6 -10 -5 -19 1 -23 18 -11 10 -30 -19 -47 -16
-9 -34 -27 -41 -40 l-11 -23 19 24 c12 15 25 22 36 18 20 -8 21 -23 1 -31 -8
-3 -15 -17 -15 -31 0 -18 -4 -24 -12 -19 -9 5 -8 2 1 -10 11 -13 16 -14 23 -4
6 9 7 5 3 -9 -3 -13 -2 -31 4 -40 10 -17 10 -17 11 0 0 16 5 16 50 -9 28 -15
50 -31 50 -35 0 -11 -66 -23 -85 -15 -19 7 -19 -1 -1 -19 7 -8 18 -11 22 -7 5
4 6 3 2 -2 -16 -20 16 -46 94 -76 97 -37 122 -36 221 9 l68 30 39 87 c22 47
40 93 40 101 0 19 -68 174 -83 190 -10 10 -21 9 -56 -3 -54 -19 -66 -11 -17
12 28 14 33 20 25 31 -6 7 -22 13 -35 13 -32 0 -77 18 -91 37 -11 14 -16 15
-40 3 -16 -8 -32 -16 -38 -19 -5 -3 -4 3 4 12 7 9 9 17 3 17 -5 0 -15 -7 -22
-15z m-94 -69 c3 -8 1 -23 -4 -32 -9 -16 -11 -15 -21 5 -12 22 -7 41 10 41 5
0 12 -6 15 -14z m164 -21 c-26 -27 -46 -24 -30 6 6 10 20 19 32 19 21 0 21 0
-2 -25z m-75 -35 c-3 -5 -16 -15 -28 -21 -21 -10 -21 -9 2 10 25 23 36 27 26
11z m-100 -65 c-16 -14 -32 -20 -34 -14 -4 13 28 38 49 38 9 0 4 -9 -15 -24z
m179 0 c-4 -8 -10 -15 -15 -15 -5 0 -9 7 -9 15 0 8 7 15 15 15 9 0 12 -6 9
-15z m39 -27 c-31 -33 -43 -22 -18 16 10 15 22 23 31 19 12 -4 9 -12 -13 -35z
m90 25 c-7 -2 -21 -2 -30 0 -10 3 -4 5 12 5 17 0 24 -2 18 -5z m-203 -9 c-8
-3 -23 -19 -34 -37 -20 -34 -32 -24 -22 18 5 21 12 25 39 24 17 -1 25 -3 17
-5z m258 -14 c-7 -11 -16 -20 -19 -20 -4 0 -5 9 -2 20 3 11 12 20 19 20 12 0
12 -4 2 -20z m-362 -67 c-23 -19 -31 -22 -37 -11 -14 21 -10 28 15 28 14 0 28
5 31 11 4 6 10 7 14 4 3 -4 -7 -18 -23 -32z m203 4 c9 -12 6 -16 -21 -20 -45
-6 -64 10 -42 34 17 19 39 14 63 -14z m55 -44 c-10 -7 -27 -13 -37 -13 -19 0
-18 2 4 23 17 17 28 20 37 13 11 -8 11 -12 -4 -23z m-184 12 c0 -2 -9 -9 -20
-15 -16 -9 -20 -8 -20 5 0 8 9 15 20 15 11 0 20 -2 20 -5z m80 -25 c7 -13 7
-26 2 -37 -7 -12 -10 -8 -14 21 -5 41 -3 44 12 16z m170 -5 c0 -2 -9 -9 -20
-15 -16 -9 -18 -8 -14 5 5 13 34 22 34 10z m-222 -60 c-23 -27 -38 -25 -38 6
0 14 7 19 30 19 l30 0 -22 -25z m162 15 c0 -5 -6 -10 -12 -10 -7 0 -25 -7 -40
-14 -33 -18 -37 -4 -6 18 25 18 58 21 58 6z m-90 -60 c0 -14 -7 -20 -22 -20
-20 0 -21 1 -3 20 10 11 20 20 22 20 1 0 3 -9 3 -20z m-143 4 c-3 -3 -12 -4
-19 -1 -8 3 -5 6 6 6 11 1 17 -2 13 -5z"/>
<path d="M3266 2873 c-4 -5 -14 -23 -22 -41 -8 -20 -19 -32 -26 -29 -7 2 -12
10 -10 16 2 10 -17 15 -46 12 -27 -4 -52 -36 -52 -67 0 -25 7 -36 35 -55 40
-28 43 -35 14 -42 -28 -8 -49 2 -42 19 7 19 -27 8 -44 -14 -18 -22 -16 -81 2
-88 15 -6 39 -68 37 -98 0 -10 15 -38 34 -62 30 -36 47 -47 120 -70 91 -30 85
-30 204 15 67 26 76 35 107 107 48 114 48 114 7 209 -43 97 -80 133 -152 147
-25 4 -54 17 -64 28 -21 23 -48 27 -48 7 0 -7 -7 -22 -15 -33 -15 -18 -16 -17
-10 14 5 24 3 32 -8 32 -7 0 -17 -3 -21 -7z m114 -42 c0 -5 -7 -14 -15 -21
-13 -10 -15 -9 -15 9 0 12 6 21 15 21 8 0 15 -4 15 -9z m-222 -53 c-2 -17 -8
-33 -14 -35 -6 -2 -8 10 -6 32 5 44 24 47 20 3z m161 5 c-26 -35 -41 -43 -56
-32 -9 8 -13 8 -13 0 0 -6 -16 -18 -36 -26 -53 -22 -54 -19 -3 13 24 16 50 36
58 45 7 9 25 17 38 17 23 0 24 -2 12 -17z m161 8 c-8 -5 -26 -12 -40 -15 l-25
-7 25 15 c14 9 32 15 40 15 13 0 13 -1 0 -8z m10 -88 c0 -5 -9 -19 -20 -33
l-20 -25 0 33 c0 25 4 32 20 32 11 0 20 -3 20 -7z m-180 -10 c0 -5 -5 -15 -10
-23 -8 -12 -10 -11 -10 8 0 12 5 22 10 22 6 0 10 -3 10 -7z m44 -30 c-9 -39
-15 -46 -26 -35 -5 5 -4 19 3 35 16 35 31 35 23 0z m168 -13 c-15 -17 -28 -26
-30 -20 -5 14 38 61 49 55 4 -3 -5 -19 -19 -35z m-282 3 c0 -10 -20 -40 -20
-31 0 3 -3 13 -6 22 -4 11 -1 16 10 16 9 0 16 -3 16 -7z m-71 -43 c-29 -28
-47 -35 -41 -15 7 20 36 45 53 45 14 0 12 -6 -12 -30z m136 -17 c-9 -50 -14
-56 -31 -42 -20 17 -17 38 9 60 30 25 30 24 22 -18z m168 20 c8 -7 -11 -33
-24 -33 -5 0 -9 9 -9 20 0 19 20 27 33 13z m-253 -53 c-6 -12 -14 -20 -17 -17
-2 3 1 14 8 26 17 26 24 19 9 -9z m163 0 c-3 -11 -9 -17 -15 -14 -5 3 -4 12 3
20 16 19 18 18 12 -6z m114 -32 c-3 -8 -6 -5 -6 6 -1 11 2 17 5 13 3 -3 4 -12
1 -19z m-323 -11 c-3 -8 -12 -18 -20 -21 -20 -8 -18 21 3 33 21 12 25 9 17
-12z m280 -12 c-13 -9 -20 -10 -23 -3 -2 6 5 17 15 25 13 9 20 10 22 3 2 -6
-4 -17 -14 -25z m-136 -17 c-18 -26 -38 -35 -38 -16 0 18 20 38 38 38 12 0 12
-3 0 -22z m78 -14 c-9 -8 -16 -22 -16 -30 0 -8 -4 -14 -10 -14 -5 0 -10 14
-10 30 0 26 4 30 26 30 23 0 24 -1 10 -16z m74 -34 c0 -5 -5 -10 -11 -10 -5 0
-7 5 -4 10 3 6 8 10 11 10 2 0 4 -4 4 -10z m-183 -30 c-22 -19 -34 -11 -24 15
4 8 14 11 26 8 20 -5 20 -5 -2 -23z m-100 14 c-3 -3 -12 -4 -19 -1 -8 3 -5 6
6 6 11 1 17 -2 13 -5z"/>
<path d="M3944 2863 c-9 -14 -14 -15 -26 -6 -18 15 -38 -1 -38 -29 0 -21 -11
-23 -28 -6 -9 9 -12 6 -12 -15 0 -15 -4 -27 -8 -27 -5 0 -7 14 -4 30 5 34 2
36 -38 15 -30 -15 -41 -45 -18 -45 6 0 3 -6 -7 -14 -18 -13 -18 -17 -5 -40 10
-20 16 -23 22 -14 6 8 7 4 3 -12 -10 -36 -20 -43 -35 -25 -10 12 -10 15 0 15
8 0 10 3 7 7 -11 10 -67 -49 -67 -71 0 -10 7 -28 17 -38 9 -10 21 -28 27 -40
9 -19 18 -22 52 -20 27 2 45 -2 53 -12 11 -13 11 -16 -3 -16 -9 0 -24 -8 -35
-19 -10 -10 -25 -21 -32 -24 -9 -3 -5 -6 8 -6 15 -1 20 -6 16 -19 -2 -10 4
-25 14 -33 19 -17 158 -69 183 -69 30 0 161 54 181 74 34 35 81 156 76 196
-13 103 -105 230 -167 230 -15 0 -44 11 -64 25 -44 30 -57 31 -72 8z m52 -38
c-17 -17 -21 -9 -10 20 5 11 10 13 17 6 6 -6 4 -15 -7 -26z m-52 -13 c3 -5
-11 -24 -31 -43 -36 -34 -36 -28 -1 24 21 29 24 31 32 19z m204 -27 c2 -2 -5
-16 -15 -32 -18 -30 -43 -34 -43 -7 0 9 -11 14 -30 14 -27 0 -30 2 -20 19 15
28 77 32 108 6z m-166 -45 c-9 -16 -18 -25 -20 -20 -4 12 17 50 28 50 5 0 1
-13 -8 -30z m-138 -27 c-23 -17 -31 -16 -38 2 -7 20 25 37 42 22 11 -9 11 -13
-4 -24z m267 -10 c42 -31 49 -43 21 -43 -10 0 -27 -6 -38 -14 -17 -13 -21 -12
-41 6 -22 20 -22 22 -6 49 10 16 19 29 21 29 2 0 21 -12 43 -27z m-156 -13 c3
-6 -1 -13 -10 -16 -19 -8 -30 0 -20 15 8 14 22 14 30 1z m-95 -56 c-13 -15
-15 -14 -21 3 -7 20 11 37 25 23 6 -6 4 -16 -4 -26z m160 28 c0 -13 -39 -46
-46 -39 -9 9 16 47 31 47 8 0 15 -4 15 -8z m156 -17 c-26 -19 -42 -19 -26 0 7
8 20 15 29 15 13 -1 13 -3 -3 -15z m-263 -39 c-21 -28 -28 -26 -18 3 3 12 13
21 21 21 12 0 12 -4 -3 -24z m-91 -2 c-10 -19 -67 -46 -76 -36 -6 5 60 49 77
51 4 1 4 -6 -1 -15z m259 -23 c-14 -16 -28 -27 -30 -25 -7 7 30 54 43 54 9 0
4 -11 -13 -29z m-87 1 c2 -4 -1 -18 -8 -31 -11 -19 -14 -21 -19 -7 -11 28 12
62 27 38z m196 -1 c0 -5 -9 -11 -20 -14 -13 -3 -20 0 -20 9 0 8 9 14 20 14 11
0 20 -4 20 -9z m-314 -39 c-8 -9 -19 -13 -22 -9 -10 9 16 38 28 31 6 -4 4 -13
-6 -22z m74 0 c0 -4 -13 -23 -30 -42 -24 -29 -29 -31 -30 -16 0 11 10 30 22
43 22 23 38 30 38 15z m153 -29 c-3 -10 -11 -24 -17 -31 -8 -11 -11 -10 -17 5
-4 12 0 22 15 30 27 16 26 16 19 -4z m45 -10 c2 -35 -13 -62 -27 -48 -6 7 -5
21 4 43 17 39 20 40 23 5z m-295 -45 c-5 -26 -37 -47 -50 -34 -4 3 0 6 8 6 8
0 20 14 27 32 14 37 23 35 15 -4z m154 2 c-14 -11 -27 -20 -30 -20 -3 0 -3 9
0 20 4 13 14 20 31 20 l25 0 -26 -20z m-97 -19 c0 -5 -7 -11 -15 -15 -15 -5
-20 5 -8 17 9 10 23 9 23 -2z m180 5 c0 -3 -4 -8 -10 -11 -5 -3 -10 -1 -10 4
0 6 5 11 10 11 6 0 10 -2 10 -4z m-103 -58 c-3 -8 -6 -5 -6 6 -1 11 2 17 5 13
3 -3 4 -12 1 -19z"/>
<path d="M1876 674 c-41 -40 11 -143 83 -165 22 -6 109 -9 218 -7 166 3 184 5
210 24 44 33 43 77 -2 124 l-37 38 -103 1 -103 2 -7 -33 c-7 -30 -8 -31 -21
-13 -10 14 -11 22 -3 32 18 21 -214 19 -235 -3z m422 -21 c-15 -15 -31 -23
-35 -19 -9 8 32 46 50 46 7 0 -1 -12 -15 -27z m-308 3 c0 -15 -18 -31 -26 -23
-7 7 7 37 17 37 5 0 9 -6 9 -14z m56 -27 c-33 -26 -40 -24 -20 5 9 15 21 22
30 19 11 -4 8 -10 -10 -24z m318 0 c-25 -27 -37 -23 -18 6 9 14 20 22 26 19 5
-3 2 -14 -8 -25z m-138 -14 c-22 -17 -36 -19 -36 -7 0 14 12 22 34 22 21 -1
21 -1 2 -15z m104 -35 c0 -9 -31 -23 -37 -17 -2 2 -1 11 3 20 5 15 34 13 34
-3z m-190 -5 c0 -1 -14 -5 -32 -7 -27 -4 -29 -3 -14 8 15 10 46 10 46 -1z
m-73 -11 c-3 -3 -12 -4 -19 -1 -8 3 -5 6 6 6 11 1 17 -2 13 -5z"/>
</g>
</svg>
