<?xml version="1.0" standalone="no"?>
<!DOCTYPE svg PUBLIC "-//W3C//DTD SVG 20010904//EN"
 "http://www.w3.org/TR/2001/REC-SVG-20010904/DTD/svg10.dtd">
<svg version="1.0" xmlns="http://www.w3.org/2000/svg"
 width="421.000000pt" height="421.000000pt" viewBox="0 0 421.000000 421.000000"
 preserveAspectRatio="xMidYMid meet">
<metadata>
Created by potrace 1.14, written by Peter Selinger 2001-2017
</metadata>
<g transform="translate(0.000000,421.000000) scale(0.100000,-0.100000)"
fill="#000000" stroke="none">
<path d="M532 2968 c-7 -7 -20 -13 -30 -13 -13 0 -17 -9 -17 -37 0 -21 -4 -38
-10 -38 -5 0 -4 -4 4 -9 8 -5 23 -8 33 -6 11 3 18 -2 19 -13 0 -15 1 -14 8 2
7 18 8 18 26 0 16 -16 18 -16 13 -2 -6 13 -1 16 26 14 18 -2 39 -7 46 -11 9
-5 11 -4 6 3 -9 15 -1 15 26 1 15 -8 19 -8 14 0 -11 17 11 13 30 -6 16 -16 17
-16 12 -1 -6 13 -1 16 26 14 18 -2 39 -7 46 -11 9 -5 11 -4 6 3 -9 15 -1 15
26 1 15 -8 19 -8 14 0 -11 17 11 13 30 -6 16 -16 17 -16 12 -1 -6 13 -1 16 26
14 18 -2 39 -7 46 -11 9 -5 11 -4 6 3 -9 15 -1 15 26 1 15 -8 19 -8 14 0 -4 6
-4 11 -1 11 4 0 16 -5 27 -11 15 -8 19 -8 13 0 -7 13 35 9 56 -5 8 -5 9 -3 4
6 -5 8 -3 11 6 8 8 -3 13 -12 11 -19 -1 -9 3 -7 12 4 9 12 16 15 21 7 5 -8 11
-8 19 -1 9 8 13 7 13 -3 0 -8 -8 -13 -18 -11 -10 2 -22 -1 -25 -7 -4 -6 -3 -8
2 -5 6 3 16 2 24 -4 12 -7 11 -9 -5 -9 -17 0 -17 -2 -5 -10 13 -8 13 -10 -2
-10 -10 0 -15 -5 -12 -13 3 -8 -2 -20 -11 -27 -8 -7 -15 -18 -15 -26 0 -7 -5
-16 -12 -20 -7 -5 -8 -3 -3 6 5 9 4 11 -4 6 -9 -6 -9 -11 1 -24 10 -12 10 -14
1 -8 -7 4 -14 2 -14 -3 -1 -6 -2 -16 -3 -21 0 -6 -7 -14 -14 -19 -8 -5 -13
-11 -13 -15 4 -27 -3 -42 -31 -69 -18 -17 -25 -28 -15 -24 23 9 22 2 -5 -23
-12 -11 -18 -20 -12 -20 5 -1 -2 -8 -16 -16 -14 -8 -17 -13 -7 -10 21 7 23
-10 1 -18 -9 -4 -14 -13 -10 -21 7 -20 -14 -66 -27 -58 -6 4 -8 0 -5 -8 9 -24
-10 -62 -28 -55 -13 5 -14 4 -6 -7 16 -19 -37 -149 -57 -142 -11 4 -11 2 -2
-9 12 -14 5 -46 -10 -46 -4 0 -5 -7 -2 -17 4 -11 3 -14 -5 -9 -8 5 -11 1 -10
-11 3 -33 -2 -53 -12 -53 -7 0 -7 7 0 23 11 21 11 21 -4 3 -9 -11 -12 -24 -8
-28 13 -13 2 -60 -13 -55 -6 3 -12 -1 -12 -9 0 -7 3 -11 7 -9 4 2 5 -7 2 -20
-2 -14 -11 -25 -21 -25 -11 0 -12 -3 -4 -8 9 -6 9 -21 -3 -67 -9 -33 -19 -64
-22 -70 -3 -5 -6 -18 -7 -27 0 -10 -4 -17 -10 -16 -5 1 -9 9 -7 18 2 13 2 13
-7 0 -7 -10 -5 -20 6 -32 14 -16 14 -20 -2 -44 -9 -15 -12 -23 -5 -19 8 5 11
-3 8 -26 -3 -30 0 -34 20 -32 16 2 21 -1 16 -10 -5 -8 -2 -8 9 2 12 10 17 10
17 2 0 -8 5 -7 15 3 8 8 15 21 15 30 0 8 4 17 10 21 5 3 7 12 3 21 -3 8 5 27
18 42 16 18 18 22 5 12 -18 -14 -19 -13 -13 3 4 10 7 28 7 38 0 11 3 18 8 16
4 -3 8 13 9 36 1 29 8 46 25 59 15 12 17 16 6 12 -10 -3 -18 -1 -18 5 0 6 4
11 10 11 5 0 6 7 3 17 -4 10 -2 14 4 10 6 -4 14 0 17 9 4 9 2 13 -5 8 -7 -4
-10 -1 -7 7 3 8 10 14 16 14 5 0 14 4 19 9 4 5 3 6 -4 2 -14 -8 -27 10 -13 19
6 4 8 10 5 15 -9 15 7 41 23 35 12 -4 13 -3 2 10 -9 11 -10 18 -1 28 6 8 7 18
3 22 -4 5 2 5 13 1 16 -6 18 -5 8 5 -18 18 -16 32 3 25 13 -5 14 -4 6 7 -7 8
-8 17 -4 21 7 7 8 11 11 37 0 5 5 8 10 5 5 -4 7 3 4 14 -3 11 0 20 6 20 6 0
16 11 22 24 7 14 17 22 25 19 8 -3 14 -3 14 0 0 3 -7 7 -15 11 -9 3 -20 -5
-29 -22 -24 -42 -19 -19 8 37 12 28 26 47 30 44 4 -4 4 0 0 10 -4 12 -1 17 10
17 9 0 16 5 16 11 0 5 -5 7 -11 4 -14 -9 30 78 45 87 6 4 7 8 2 8 -5 0 -3 7 4
15 7 8 17 12 24 8 7 -4 6 -1 -2 9 -10 12 -8 22 13 52 14 20 24 42 22 48 -1 6
9 17 23 25 14 7 20 13 13 13 -6 0 -9 9 -6 20 3 11 10 20 15 20 5 0 6 -4 3 -10
-3 -5 -1 -10 5 -10 6 0 8 10 4 26 -5 19 -3 25 4 20 8 -5 10 -1 5 10 -5 14 -3
16 12 11 15 -6 16 -5 6 7 -10 12 -8 19 13 37 13 12 22 28 19 35 -3 9 2 14 13
15 11 0 14 3 6 6 -9 4 -8 12 5 36 10 18 20 34 23 37 3 3 6 15 6 28 1 19 -4 22
-32 22 -19 0 -36 -1 -39 -2 -2 -2 -11 6 -20 17 -14 18 -14 18 -9 1 6 -16 5
-17 -16 -6 -13 7 -20 8 -16 2 4 -6 -2 -10 -14 -9 -11 1 -20 6 -20 12 0 6 -3 7
-8 0 -11 -15 -32 -17 -32 -3 0 10 -2 10 -9 0 -4 -8 -12 -14 -16 -14 -4 0 -12
6 -16 14 -7 10 -9 10 -9 0 0 -10 -5 -10 -21 -1 -13 7 -19 7 -15 1 4 -6 -2 -10
-14 -9 -11 1 -20 6 -20 12 0 6 -3 7 -8 0 -11 -15 -32 -17 -32 -3 0 10 -2 10
-9 0 -4 -8 -12 -14 -16 -14 -4 0 -12 6 -16 14 -7 10 -9 10 -9 0 0 -10 -5 -10
-21 -1 -13 7 -19 7 -15 1 4 -6 -2 -10 -14 -9 -11 1 -20 6 -20 12 0 5 -4 4 -9
-3 -4 -8 -12 -14 -16 -14 -4 0 -12 6 -16 14 -7 10 -9 10 -9 1 0 -15 -21 -13
-32 2 -5 6 -8 5 -8 -3 0 -10 -5 -10 -21 -1 -13 7 -19 7 -15 1 4 -6 -2 -10 -14
-9 -11 1 -20 6 -20 12 0 5 -4 4 -9 -3 -4 -8 -12 -14 -16 -14 -4 0 -12 6 -16
14 -7 11 -9 11 -9 -1 0 -10 -3 -11 -14 -2 -11 9 -16 9 -22 0 -5 -9 -10 -8 -19
5 -11 15 -13 15 -19 1 -3 -9 -10 -13 -16 -10 -6 4 -8 11 -5 16 9 13 1 11 -13
-3z"/>
<path d="M1295 2970 c-3 -5 -1 -10 4 -10 6 0 11 5 11 10 0 6 -2 10 -4 10 -3 0
-8 -4 -11 -10z"/>
<path d="M610 2850 c0 -5 5 -10 11 -10 5 0 7 5 4 10 -3 6 -8 10 -11 10 -2 0
-4 -4 -4 -10z"/>
<path d="M770 2850 c0 -5 5 -10 11 -10 5 0 7 5 4 10 -3 6 -8 10 -11 10 -2 0
-4 -4 -4 -10z"/>
<path d="M930 2850 c0 -5 5 -10 11 -10 5 0 7 5 4 10 -3 6 -8 10 -11 10 -2 0
-4 -4 -4 -10z"/>
<path d="M1255 2750 c-3 -5 -1 -10 4 -10 6 0 11 5 11 10 0 6 -2 10 -4 10 -3 0
-8 -4 -11 -10z"/>
<path d="M1044 2612 c3 -6 -2 -15 -11 -21 -16 -9 -16 -10 -2 -11 20 0 33 27
17 36 -6 4 -8 3 -4 -4z"/>
<path d="M1156 2548 c3 -5 10 -6 15 -3 13 9 11 12 -6 12 -8 0 -12 -4 -9 -9z"/>
<path d="M1094 2429 c-3 -6 -2 -15 3 -20 5 -5 9 -1 9 11 0 23 -2 24 -12 9z"/>
<path d="M930 2416 c0 -2 8 -10 18 -17 15 -13 16 -12 3 4 -13 16 -21 21 -21
13z"/>
<path d="M1540 2376 c0 -2 8 -10 18 -17 15 -13 16 -12 3 4 -13 16 -21 21 -21
13z"/>
<path d="M915 2350 c-3 -5 -1 -10 4 -10 6 0 11 5 11 10 0 6 -2 10 -4 10 -3 0
-8 -4 -11 -10z"/>
<path d="M1616 2347 c3 -10 9 -15 12 -12 3 3 0 11 -7 18 -10 9 -11 8 -5 -6z"/>
<path d="M3421 2349 c7 -4 16 -6 20 -3 4 2 10 1 13 -4 2 -4 -13 -8 -34 -7 -21
0 -36 3 -35 6 4 5 -32 4 -45 -1 -3 -1 -9 -1 -15 0 -39 9 -75 8 -69 -2 5 -7 2
-8 -5 -3 -16 9 -91 12 -85 3 2 -3 -2 -9 -8 -11 -9 -4 -8 -6 2 -6 13 -1 13 -2
0 -11 -13 -8 -13 -10 -1 -10 11 0 9 -4 -5 -15 -12 -9 -13 -13 -4 -10 11 4 16
-2 17 -17 2 -18 0 -20 -7 -8 -8 13 -10 12 -10 -2 0 -10 5 -18 10 -18 14 0 8
-44 -9 -64 -12 -14 -12 -16 1 -11 12 5 15 -6 14 -59 -1 -51 -3 -62 -14 -54 -9
8 -11 7 -6 -6 3 -9 10 -16 15 -16 5 0 9 -9 9 -20 0 -11 -5 -19 -11 -18 -6 2
-14 -4 -16 -12 -4 -12 -3 -12 5 -1 7 10 11 10 17 1 8 -14 -14 -32 -28 -23 -5
3 -3 -5 3 -18 18 -34 24 -38 16 -11 -5 13 -3 22 3 22 15 0 14 -77 -1 -83 -10
-4 -10 -6 0 -6 6 -1 12 -6 12 -12 0 -5 -6 -7 -12 -3 -10 6 -10 4 0 -7 6 -7 12
-37 12 -66 0 -49 -5 -58 -31 -55 -3 1 -6 -6 -6 -14 0 -10 4 -11 11 -4 20 20
26 9 25 -45 -2 -45 -4 -53 -16 -44 -11 9 -12 8 -7 -5 3 -9 10 -16 15 -16 5 0
9 -25 8 -55 -2 -50 -7 -60 -32 -56 -4 1 -3 -9 4 -21 17 -33 23 -37 15 -10 -5
13 -3 22 3 22 6 0 11 -18 11 -40 0 -37 -7 -45 -33 -41 -4 1 -2 -8 5 -19 7 -11
16 -20 20 -20 5 0 8 -18 8 -40 0 -22 -4 -40 -10 -40 -5 0 -10 -5 -10 -11 0 -5
5 -7 10 -4 6 3 10 1 10 -4 0 -6 -5 -11 -11 -11 -6 0 -4 -7 5 -15 13 -13 46
-16 198 -15 158 1 191 4 238 22 30 11 63 21 72 21 9 1 15 4 13 8 -3 3 9 19 25
34 44 42 81 99 85 131 1 16 7 28 12 27 5 -1 7 11 5 28 -3 20 0 29 9 29 10 0
11 2 3 8 -19 11 -21 71 -4 83 13 9 12 10 -2 5 -11 -3 -18 0 -18 7 0 7 -7 25
-15 40 -8 15 -12 35 -9 45 5 14 4 15 -5 2 -9 -12 -11 -12 -16 2 -9 24 -91 76
-137 89 -44 11 -48 21 -14 37 14 6 43 27 65 47 21 20 41 32 43 28 3 -4 3 -3 2
4 -2 7 4 26 12 42 17 34 26 71 28 116 0 17 8 33 16 37 12 5 11 7 -4 7 -14 1
-17 7 -14 30 2 17 1 28 -4 25 -4 -3 -8 4 -8 15 0 11 -5 23 -11 26 -6 4 -8 14
-4 23 3 9 3 14 0 10 -4 -3 -24 10 -45 31 -21 21 -57 43 -79 51 -22 7 -38 17
-35 22 3 5 -6 6 -20 2 -22 -5 -25 -3 -20 12 5 16 4 16 -5 4 -12 -17 -54 -23
-48 -6 3 7 -9 11 -30 12 -22 1 -30 -2 -22 -7z m117 -99 c67 -18 110 -55 127
-114 16 -52 12 -130 -8 -179 -19 -43 -72 -96 -105 -103 -15 -3 -43 -12 -62
-20 -25 -11 -65 -14 -140 -12 l-105 3 -1 217 -1 217 26 3 c60 8 220 1 269 -12z
m42 -521 c122 -43 173 -142 145 -281 -14 -70 -46 -110 -117 -147 -56 -28 -62
-29 -211 -30 l-154 -2 -1 242 0 241 152 -5 c83 -3 167 -11 186 -18z m-410
-369 c0 -5 -2 -10 -4 -10 -3 0 -8 5 -11 10 -3 6 -1 10 4 10 6 0 11 -4 11 -10z"/>
<path d="M1230 2342 c-6 -2 -10 -25 -10 -51 0 -26 -6 -53 -12 -60 -10 -11 -10
-12 -1 -7 10 5 13 -39 13 -203 -1 -125 -4 -211 -10 -211 -5 0 -7 7 -4 15 4 8
2 15 -4 15 -6 0 -9 -8 -7 -17 1 -10 -2 -25 -8 -33 -9 -12 -9 -13 3 -2 8 6 18
12 22 12 5 0 8 -127 8 -282 -1 -156 -1 -291 0 -300 0 -14 9 -18 40 -18 l40 0
0 224 c0 161 3 227 12 232 8 5 9 2 5 -9 -3 -10 -2 -17 3 -17 6 0 10 7 10 15 0
8 5 15 11 15 5 0 7 -6 3 -12 -6 -10 -4 -10 7 -2 15 12 51 15 44 3 -3 -4 1 -9
8 -11 15 -6 39 1 33 10 -2 4 9 8 25 8 16 1 29 -3 29 -10 0 -8 2 -8 8 0 10 16
77 22 77 7 0 -6 3 -15 7 -19 4 -3 5 3 3 16 -3 16 0 20 10 16 8 -3 15 0 15 5 0
6 9 9 20 6 11 -3 18 -2 15 3 -2 4 13 15 35 25 21 9 51 30 66 46 15 15 31 26
36 23 5 -3 8 -2 6 3 -3 12 35 83 44 83 5 0 6 -4 3 -10 -4 -6 1 -7 11 -3 15 5
15 7 0 15 -12 7 -13 14 -4 36 6 15 11 68 11 117 1 74 -3 100 -23 145 -13 30
-35 66 -49 79 -14 14 -25 29 -23 33 1 4 -1 7 -5 6 -5 0 -25 6 -45 15 -21 10
-42 17 -49 17 -6 0 -8 7 -5 16 5 14 4 15 -9 4 -11 -9 -19 -10 -27 -2 -6 6 -16
8 -23 5 -8 -2 -23 1 -35 7 -18 10 -21 9 -15 -1 6 -8 4 -10 -6 -3 -23 14 -51
16 -43 2 5 -7 3 -8 -5 -3 -22 13 -82 15 -75 3 5 -7 2 -8 -5 -3 -22 13 -82 15
-75 3 5 -7 2 -8 -5 -3 -13 7 -84 12 -101 7z m341 -86 c90 -12 170 -74 190
-148 15 -56 15 -156 -1 -204 -26 -80 -94 -139 -186 -163 -34 -9 -183 -16 -256
-12 -17 1 -18 21 -18 265 0 244 1 265 18 268 23 5 208 1 253 -6z"/>
<path d="M2095 1963 c0 -379 0 -381 -20 -371 -17 8 -16 6 3 -9 18 -14 23 -30
25 -75 1 -31 5 -54 10 -51 4 2 7 -4 7 -15 0 -11 13 -45 29 -77 16 -32 27 -65
24 -74 -4 -14 -3 -14 6 -1 5 8 13 11 17 7 4 -3 1 -15 -7 -24 -12 -16 -12 -17
2 -5 13 10 18 10 28 -1 6 -8 7 -18 3 -22 -4 -5 -2 -5 5 -1 6 3 26 -2 45 -13
18 -10 44 -22 58 -26 14 -5 31 -15 38 -24 8 -9 11 -11 8 -4 -4 8 4 11 23 11
17 -1 28 -5 25 -9 -2 -4 0 -10 6 -14 5 -3 10 -1 10 5 0 16 44 8 52 -10 5 -12
7 -12 7 3 1 9 6 17 12 17 5 0 7 -6 4 -12 -4 -7 0 -4 9 6 13 17 18 17 33 5 11
-9 14 -10 9 -1 -5 8 0 12 13 12 12 0 23 0 26 0 17 1 106 46 135 68 19 15 40
25 45 24 6 -2 7 0 3 3 -4 4 -3 16 3 27 9 16 13 17 27 6 15 -11 15 -11 5 3 -10
12 -8 24 9 60 12 24 25 45 29 47 4 2 5 12 2 22 -3 12 0 20 6 20 7 0 9 -6 5
-12 -4 -7 -3 -9 1 -5 12 10 15 38 4 31 -5 -3 -9 0 -9 5 0 6 5 11 10 11 6 0 10
5 10 11 0 5 -4 8 -9 5 -5 -3 -6 8 -2 27 5 18 7 41 5 50 -2 14 2 17 14 13 15
-5 15 -4 2 6 -13 11 -15 64 -14 370 l1 356 -39 4 -38 4 0 -103 c0 -60 -4 -103
-10 -103 -5 0 -7 8 -4 18 5 13 4 14 -4 3 -12 -16 -4 -44 9 -35 5 3 9 -7 9 -21
0 -14 -4 -24 -9 -20 -5 3 -13 1 -16 -5 -4 -6 -1 -9 7 -8 10 2 14 -24 16 -121
2 -108 0 -125 -15 -137 -17 -13 -17 -14 0 -8 13 5 17 1 17 -19 0 -14 -6 -28
-12 -30 -10 -4 -10 -6 0 -6 8 -1 12 -21 12 -67 0 -49 -3 -63 -12 -58 -8 5 -7
0 2 -11 9 -11 10 -16 3 -11 -7 4 -13 3 -13 -3 0 -5 6 -11 12 -13 9 -3 8 -12
-6 -32 -10 -16 -13 -25 -7 -22 6 4 11 0 11 -9 0 -10 -5 -14 -12 -9 -10 5 -10
4 -1 -6 16 -18 -20 -126 -38 -114 -5 3 -6 -1 -3 -9 7 -20 -59 -85 -110 -107
-41 -19 -62 -18 -50 2 4 7 2 8 -5 4 -6 -4 -9 -11 -6 -16 2 -4 -6 -10 -20 -12
-13 -3 -22 -2 -20 2 3 5 -2 10 -10 13 -9 4 -12 1 -9 -7 7 -19 -111 -9 -163 14
-24 10 -43 21 -43 24 0 7 37 -1 53 -11 16 -10 41 -14 32 -5 -4 4 -10 7 -13 7
-4 1 -16 6 -27 12 -11 6 -29 9 -40 7 -28 -4 -67 34 -59 60 4 15 3 17 -4 7 -7
-9 -12 -10 -16 -2 -4 6 -5 11 -2 11 3 0 -3 9 -15 21 -19 19 -20 22 -4 39 12
14 13 20 4 26 -7 4 -10 3 -5 -4 3 -6 2 -13 -3 -16 -11 -7 -18 11 -27 69 -6 37
-5 38 13 25 16 -14 17 -13 5 2 -8 9 -10 23 -6 29 4 7 3 9 -3 6 -6 -4 -14 0
-17 9 -10 26 -7 34 12 28 15 -5 15 -4 2 8 -20 16 -25 79 -8 90 9 5 10 8 1 8
-8 0 -12 18 -11 50 0 27 4 47 9 44 5 -3 9 0 9 5 0 6 -4 11 -9 11 -6 0 -10 49
-10 115 1 67 5 113 10 109 5 -3 9 0 9 5 0 6 -4 11 -10 11 -13 0 -10 113 4 122
8 6 8 8 -1 8 -15 0 -17 46 -3 55 6 3 10 14 9 23 0 14 -2 13 -9 -3 -7 -16 -9
-13 -9 16 -1 35 -3 37 -39 40 l-37 4 0 -382z"/>
<path d="M2181 2324 c0 -11 3 -14 6 -6 3 7 2 16 -1 19 -3 4 -6 -2 -5 -13z"/>
<path d="M1199 2325 c-1 -3 -2 -13 -3 -22 -1 -10 -5 -25 -10 -33 -7 -12 -6
-13 5 -2 11 11 22 62 12 62 -1 0 -4 -2 -4 -5z"/>
<path d="M893 2285 c0 -8 4 -12 9 -9 5 3 6 10 3 15 -9 13 -12 11 -12 -6z"/>
<path d="M1770 2270 c0 -5 5 -10 11 -10 5 0 7 5 4 10 -3 6 -8 10 -11 10 -2 0
-4 -4 -4 -10z"/>
<path d="M2781 2257 c-8 -10 -7 -14 2 -14 8 0 14 6 14 14 0 7 -1 13 -2 13 -2
0 -8 -6 -14 -13z"/>
<path d="M2180 2228 c0 -4 4 -8 9 -8 6 0 12 4 15 8 3 5 -1 9 -9 9 -8 0 -15 -4
-15 -9z"/>
<path d="M2785 2220 c-3 -5 -3 -10 2 -10 4 0 2 -4 -6 -9 -9 -6 -10 -11 -2 -15
6 -4 11 -4 12 1 0 4 2 16 4 26 4 19 -1 22 -10 7z"/>
<path d="M2065 2209 c-4 -6 -5 -12 -2 -15 2 -3 7 2 10 11 7 17 1 20 -8 4z"/>
<path d="M2183 2169 c-2 -23 3 -25 10 -4 4 8 3 16 -1 19 -4 3 -9 -4 -9 -15z"/>
<path d="M1189 2146 c5 -6 7 -19 6 -28 -2 -10 0 -18 5 -18 4 0 7 13 7 28 -1
16 -7 29 -14 29 -8 0 -9 -5 -4 -11z"/>
<path d="M1847 2149 c7 -7 15 -10 18 -7 3 3 -2 9 -12 12 -14 6 -15 5 -6 -5z"/>
<path d="M3766 2133 c-6 -14 -5 -15 5 -6 7 7 10 15 7 18 -3 3 -9 -2 -12 -12z"/>
<path d="M830 2129 c0 -5 5 -7 10 -4 6 3 10 8 10 11 0 2 -4 4 -10 4 -5 0 -10
-5 -10 -11z"/>
<path d="M2185 2130 c-3 -5 -1 -10 4 -10 6 0 11 5 11 10 0 6 -2 10 -4 10 -3 0
-8 -4 -11 -10z"/>
<path d="M3143 2125 c-7 -8 -9 -16 -4 -19 5 -3 12 1 15 10 8 22 4 25 -11 9z"/>
<path d="M2910 2090 c0 -5 5 -10 11 -10 5 0 7 5 4 10 -3 6 -8 10 -11 10 -2 0
-4 -4 -4 -10z"/>
<path d="M3141 2081 c-8 -5 -9 -11 -3 -15 5 -3 12 1 16 9 6 17 6 18 -13 6z"/>
<path d="M1195 2070 c3 -5 8 -10 11 -10 2 0 4 5 4 10 0 6 -5 10 -11 10 -5 0
-7 -4 -4 -10z"/>
<path d="M2783 2045 c0 -8 4 -12 9 -9 4 3 8 9 8 15 0 5 -4 9 -8 9 -5 0 -9 -7
-9 -15z"/>
<path d="M1186 2008 c3 -5 10 -6 15 -3 13 9 11 12 -6 12 -8 0 -12 -4 -9 -9z"/>
<path d="M2185 2010 c-3 -6 1 -7 9 -4 18 7 21 14 7 14 -6 0 -13 -4 -16 -10z"/>
<path d="M2786 2012 c-2 -4 -1 -14 4 -22 7 -11 9 -9 7 8 -1 24 -3 26 -11 14z"/>
<path d="M1194 1979 c-3 -6 -2 -15 3 -20 5 -5 9 -1 9 11 0 23 -2 24 -12 9z"/>
<path d="M2188 1983 c7 -3 16 -2 19 1 4 3 -2 6 -13 5 -11 0 -14 -3 -6 -6z"/>
<path d="M2186 1935 c-9 -26 -7 -32 5 -12 6 10 9 21 6 23 -2 3 -7 -2 -11 -11z"/>
<path d="M2780 1941 c0 -6 4 -13 10 -16 6 -3 7 1 4 9 -7 18 -14 21 -14 7z"/>
<path d="M2780 1907 c11 -15 11 -20 1 -27 -8 -4 -9 -10 -3 -14 18 -11 23 27 5
43 -16 15 -16 15 -3 -2z"/>
<path d="M1851 1894 c0 -11 3 -14 6 -6 3 7 2 16 -1 19 -3 4 -6 -2 -5 -13z"/>
<path d="M2185 1890 c-3 -5 -1 -10 4 -10 6 0 11 5 11 10 0 6 -2 10 -4 10 -3 0
-8 -4 -11 -10z"/>
<path d="M1195 1870 c-3 -5 -1 -10 4 -10 6 0 11 5 11 10 0 6 -2 10 -4 10 -3 0
-8 -4 -11 -10z"/>
<path d="M2910 1850 c0 -5 5 -10 11 -10 5 0 7 5 4 10 -3 6 -8 10 -11 10 -2 0
-4 -4 -4 -10z"/>
<path d="M3634 1816 c-3 -8 -12 -12 -20 -9 -8 3 -14 0 -14 -5 0 -12 39 -7 53
7 5 5 4 11 -2 16 -6 3 -14 0 -17 -9z"/>
<path d="M725 1810 c-3 -5 -1 -10 4 -10 6 0 11 5 11 10 0 6 -2 10 -4 10 -3 0
-8 -4 -11 -10z"/>
<path d="M855 1790 c-3 -5 -1 -10 4 -10 6 0 11 5 11 10 0 6 -2 10 -4 10 -3 0
-8 -4 -11 -10z"/>
<path d="M715 1779 c-4 -6 -5 -12 -2 -15 2 -3 7 2 10 11 7 17 1 20 -8 4z"/>
<path d="M3146 1776 c4 -9 1 -16 -6 -16 -9 0 -10 -3 -1 -13 6 -8 9 -17 6 -20
-3 -4 -2 -5 2 -2 10 8 12 54 2 60 -5 3 -6 -1 -3 -9z"/>
<path d="M1195 1771 c-3 -5 -2 -12 3 -15 5 -3 9 1 9 9 0 17 -3 19 -12 6z"/>
<path d="M2185 1770 c-3 -6 1 -7 9 -4 18 7 21 14 7 14 -6 0 -13 -4 -16 -10z"/>
<path d="M2188 1743 c7 -3 16 -2 19 1 4 3 -2 6 -13 5 -11 0 -14 -3 -6 -6z"/>
<path d="M3745 1730 c10 -11 20 -20 23 -20 3 0 -3 9 -13 20 -10 11 -20 20 -23
20 -3 0 3 -9 13 -20z"/>
<path d="M2780 1733 c0 -5 5 -15 10 -23 7 -12 9 -10 7 8 -1 19 -17 33 -17 15z"/>
<path d="M2183 1689 c-2 -23 3 -25 10 -4 4 8 3 16 -1 19 -4 3 -9 -4 -9 -15z"/>
<path d="M1695 1690 c3 -5 8 -10 11 -10 2 0 4 5 4 10 0 6 -5 10 -11 10 -5 0
-7 -4 -4 -10z"/>
<path d="M2786 1677 c3 -10 9 -15 12 -12 3 3 0 11 -7 18 -10 9 -11 8 -5 -6z"/>
<path d="M3793 1675 c0 -8 4 -12 9 -9 5 3 6 10 3 15 -9 13 -12 11 -12 -6z"/>
<path d="M1191 1664 c6 -7 8 -18 5 -23 -4 -5 -3 -12 2 -15 5 -3 8 8 8 23 0 16
-5 28 -13 28 -9 0 -10 -4 -2 -13z"/>
<path d="M831 1654 c0 -11 3 -14 6 -6 3 7 2 16 -1 19 -3 4 -6 -2 -5 -13z"/>
<path d="M1615 1650 c-3 -6 1 -7 9 -4 18 7 21 14 7 14 -6 0 -13 -4 -16 -10z"/>
<path d="M3141 1643 c7 -12 15 -20 18 -17 3 2 -3 12 -13 22 -17 16 -18 16 -5
-5z"/>
<path d="M1461 1641 c-8 -5 -9 -11 -3 -15 5 -3 12 1 16 9 6 17 6 18 -13 6z"/>
<path d="M1194 1596 c1 -8 5 -18 8 -22 4 -3 5 1 4 10 -1 8 -5 18 -8 22 -4 3
-5 -1 -4 -10z"/>
<path d="M2893 1569 c-2 -23 3 -25 10 -4 4 8 3 16 -1 19 -4 3 -9 -4 -9 -15z"/>
<path d="M3146 1557 c3 -10 9 -15 12 -12 3 3 0 11 -7 18 -10 9 -11 8 -5 -6z"/>
<path d="M1193 1553 c4 -3 1 -13 -6 -22 -11 -14 -10 -14 5 -2 16 12 16 31 1
31 -4 0 -3 -3 0 -7z"/>
<path d="M3141 1501 c-8 -5 -9 -11 -3 -15 5 -3 12 1 16 9 6 17 6 18 -13 6z"/>
<path d="M1201 1484 c0 -11 3 -14 6 -6 3 7 2 16 -1 19 -3 4 -6 -2 -5 -13z"/>
<path d="M2076 1488 c3 -4 9 -8 15 -8 5 0 9 4 9 8 0 5 -7 9 -15 9 -8 0 -12 -4
-9 -9z"/>
<path d="M2759 1478 c-5 -17 -4 -48 3 -48 4 0 7 11 6 25 -2 21 -6 31 -9 23z"/>
<path d="M1195 1451 c-3 -5 -2 -12 3 -15 5 -3 9 1 9 9 0 17 -3 19 -12 6z"/>
<path d="M1193 1393 c4 -3 1 -13 -6 -22 -11 -14 -10 -14 5 -2 16 12 16 31 1
31 -4 0 -3 -3 0 -7z"/>
<path d="M2109 1387 c6 -8 7 -18 3 -22 -4 -5 -1 -5 6 -1 10 6 10 11 1 22 -6 8
-14 14 -16 14 -3 0 0 -6 6 -13z"/>
<path d="M2846 1368 c3 -5 10 -6 15 -3 13 9 11 12 -6 12 -8 0 -12 -4 -9 -9z"/>
<path d="M2690 1348 c0 -4 4 -8 9 -8 6 0 12 4 15 8 3 5 -1 9 -9 9 -8 0 -15 -4
-15 -9z"/>
<path d="M1199 1333 c0 -5 -2 -16 -4 -26 -2 -11 -1 -16 3 -13 8 8 14 46 7 46
-3 0 -5 -3 -6 -7z"/>
<path d="M2670 1321 c0 -7 -5 -9 -12 -5 -7 5 -8 3 -3 -5 5 -9 10 -10 18 -2 6
6 8 14 4 18 -4 3 -7 1 -7 -6z"/>
<path d="M3151 1284 c0 -11 3 -14 6 -6 3 7 2 16 -1 19 -3 4 -6 -2 -5 -13z"/>
<path d="M3735 1290 c-3 -5 -1 -10 4 -10 6 0 11 5 11 10 0 6 -2 10 -4 10 -3 0
-8 -4 -11 -10z"/>
<path d="M2480 1281 c0 -6 4 -13 10 -16 6 -3 7 1 4 9 -7 18 -14 21 -14 7z"/>
<path d="M1192 1271 c-11 -7 -11 -9 0 -14 9 -3 15 1 15 9 0 8 -1 14 -1 14 -1
0 -7 -4 -14 -9z"/>
<path d="M3710 1249 c0 -5 5 -7 10 -4 6 3 10 8 10 11 0 2 -4 4 -10 4 -5 0 -10
-5 -10 -11z"/>
<path d="M2290 1201 c0 -6 4 -13 10 -16 6 -3 7 1 4 9 -7 18 -14 21 -14 7z"/>
<path d="M3570 1189 c0 -5 5 -7 10 -4 6 3 10 8 10 11 0 2 -4 4 -10 4 -5 0 -10
-5 -10 -11z"/>
<path d="M1273 1175 c0 -8 4 -12 9 -9 5 3 6 10 3 15 -9 13 -12 11 -12 -6z"/>
<path d="M3453 1175 c0 -8 4 -12 9 -9 5 3 6 10 3 15 -9 13 -12 11 -12 -6z"/>
</g>
</svg>
