<svg height="147pt" preserveAspectRatio="xMidYMid meet" viewBox="0 0 505 147" width="505pt" xmlns="https://www.w3.org/2000/svg"><g transform="matrix(.1 0 0 -.1 0 147)"><path d="m4116 1461c-4-5 3-7 14-4 23 6 26 13 6 13-8 0-17-4-20-9z"/><path d="m4259 1372c-9-42-36-127-59-187-54-139-345-742-373-773-34-37-120-74-163-70-31 2-42 9-52 31-17 36-9 86 20 122 12 15 53 43 92 61 80 39 76 43-16 14-114-35-208-144-208-242 0-54 22-71 86-66 52 4 193 64 255 109l29 20v-30c0-51 25-68 143-97l27-6-34 34c-40 40-61 105-51 157 4 20 39 106 80 191 155 330 233 558 242 713 3 53 4 97 2 97-3 0-12-35-20-78z"/><path d="m475 1338c-89-47-289-291-356-433-78-168-80-321-6-473 55-113 174-196 327-228 103-22 335-14 441 14 75 20 216 78 208 86-2 2-47-4-99-15-156-30-392-45-499-31-170 23-295 88-355 186-56 90-45 222 30 385 105 228 317 447 412 426 28-6 68-42 126-114 31-39 26-50-35-82-47-24-50-28-42-72 4-30 10-37 28-37 29 0 58 33 89 100 49 104 32 145-101 251-83 66-104 71-168 37z"/><path d="m3120 652c-87-53-270-194-270-209 0-7 2-13 5-13s44 30 91 66c97 74 123 87 142 71 20-16 7-51-64-167-61-101-74-130-56-130 15 0 108 63 215 148 75 58 112 81 119 74 9-9-18-107-60-221-8-21 60-5 131 30 59 30 74 49 23 29-15-5-41-10-58-10-35 0-35-6 2 129 20 73 25 121 15 121-11 0-66-31-135-75-106-69-109-64-45 88 33 79 37 107 16 107-4 0-36-17-71-38z"/><path d="m1860 607c-100-79-116-133-46-152 76-22 70-51-35-190-64-85-102-150-97-166 3-9 224 274 255 326 7 11 12 30 13 43 0 19-5 22-39 22-85 0-90 20-26 103 25 31 42 57 38 57-5 0-33-20-63-43z"/><path d="m2140 607c-100-79-116-133-46-152 76-22 70-51-35-190-64-85-102-150-97-166 3-9 224 274 255 326 7 11 12 30 13 43 0 19-5 22-39 22-85 0-90 20-26 103 25 31 42 57 38 57-5 0-33-20-63-43z"/><path d="m1403 595c-134-41-242-163-243-272 0-35 5-46 26-60 23-15 33-15 83-5 58 12 200 76 252 113l29 20v-34c0-52 36-74 165-101l30-7-33 22c-50 33-74 89-70 165 1 34 0 65-4 69-3 3-29 12-58 20-48 13-51 12-45-3 4-9 9-24 12-32 7-26-39-81-101-119-136-83-258-20-180 94 35 51 57 69 139 110 72 36 71 43-2 20z"/><path d="m2543 595c-134-41-242-163-243-272 0-35 5-46 26-60 23-15 33-15 83-5 58 12 200 76 252 113l29 20v-34c0-52 36-74 165-101l30-7-33 22c-50 33-74 89-70 165 1 34 0 65-4 69-3 3-29 12-58 20-48 13-51 12-45-3 4-9 9-24 12-32 7-26-39-81-101-119-136-83-258-20-180 94 35 51 57 69 139 110 72 36 71 43-2 20z"/><path d="m4633 595c-134-41-242-163-243-272 0-35 5-46 26-60 23-15 33-15 83-5 58 12 200 76 252 113l29 20v-34c0-52 36-74 165-101l30-7-33 22c-50 33-74 89-70 165 1 34 0 65-4 69-3 3-29 12-58 20-48 13-51 12-45-3 4-9 9-24 12-32 7-26-39-81-101-119-136-83-258-20-180 94 35 51 57 69 139 110 72 36 71 43-2 20z"/><path d="m4415 595c-5-2-31-6-58-10-32-4-62-17-92-41-25-19-47-34-49-34-3 0-8 15-11 33-9 37-20 47-57 47-36 0-45-18-11-22 38-4 40-27 9-157-26-109-33-171-18-171 21 0 43 31 67 95 49 132 131 226 211 241 19 3 37 10 40 15 5 9-11 11-31 4z"/></g></svg>